/* XPM */
static char *_1028a1b925d4ee6f607704dcb8a07bb1FrsNuPZggbBZkMT[] = {
/* columns rows colors chars-per-pixel */
"50 50 14 1 ",
"  c #010101",
". c #010002",
"X c #010103",
"o c #020003",
"O c #020202",
"+ c #030104",
"@ c #020204",
"# c #050004",
"$ c #060105",
"% c #040205",
"& c #050306",
"* c #070206",
"= c #080307",
"- c #070208",
/* pixels */
"ooooooooooooooooooo             ooooooooooooooooo%",
"oooooooooooooooooo              ooooooo%ooooooo%%o",
"oooooooooooooooo                oooooo%oooooo%%oo%",
"oooooooooooooooo                ooooo%o%ooooo%o%%o",
"++++++++oooooooo        OOOO   &ooooo%o%oooo%o%oo%",
"++++++++oooooooo        OOOO    oooo%o%oooooo%o%%o",
"++++++++oooooooo        OOOOOOOOooo%o%o%ooo%%o%oo%",
"++++++++oooooooo        OOOOOOOO%o%o%o%%o%%oo%o&%o",
"++++++++++++++++OOOOOOOOOOOOOOOO%o%o%o%ooooo%o%oo%",
"++++++++++++++++OOOOOOOOOOOOOOOOo%o%o%o%ooooo%o%%o",
"++++++++++++++++OOOOOOOOOOOOOOOO%o%o%o%ooooo%o%oo%",
"++++++++++++++++OOOOOOOOOOOOOOOOo%o%o%o%ooooo%o%%o",
"++++++++++++++++OOOOOOOO        %o%o%o%ooooo%o%oo%",
"++++++++++++++++OOOOOOOO        o%o%o%o%ooooo%o%%o",
"++++++++++++++++OOOOOOOO        %o%o%o%ooooo%o%oo%",
"++++++++++++++++OOOOOOOO        o%o%o%o%ooooo%o%%o",
"@@+@@@@o+@+@+@+@                oooo%o%ooooo%o%o%o",
"@ o @@@+o o o o                 ooooo%o%ooooo%o%o%",
"@++o@@@@ @+o @+o                oooo%o%ooooo%o%o%o",
"@o@ @@@ o+@ o+@                 ooooo%o%ooooo%o%o%",
"@@+o@@@o o @+o o                oooo%o%ooooo%o%o%o",
"@ @ @@@+@+o+@ @+                ooooo%o%ooooo%o%o%",
"@o+o@@@@+@ @@@ @                oooo%o%ooooo%o%o%o",
"@+@ @@@ o o+ @@                 ooooo%o%ooooo%o%o%",
"@@@@@@@@@@@@@@@@                oooo%o%ooooo%o%o%o",
"@@@@@@@@@@@@@@@@                ooooo%o%ooooo%o%o%",
"@@@@@@@@@@@@@@@@                oooo%o%ooooo%o%o%o",
"@@@@@@@@@@@@@@@@                ooooo%o%ooooo%o%o%",
"@@@@@@@@@@@@@@@@                oooo%o%ooooo%o%o%o",
"@@@@@@@@@@@@@@@@                ooooo%o%ooooo%o%o%",
"@@@@@@@@@@@@@@@@                oooo%o%ooooo%o%o%o",
"@@@@@@@@@@@@@@@&                ooooo%o%ooooo%o%o%",
"@+++++++++++++++@+o+o @+o+o @+o+oooooooo++++++++%o",
"++++++++++++++++ o @+@ o @+@ o @oooooooo++++++++o%",
"++++++++++++++++@+ oo+o+@ o @+@ oooooooo++++++++%o",
"++++++++++++++++ o@o @ @+o+@ o+ooooooooo++++++++o%",
"++++++++++++++++@@@@@@@@@@@@@@@@++++++++++++++++%o",
"++++++++++++++++@@@@@@@@@@@@@@@@++++++++++++++++o%",
"++++++++++++++++@@@@@@@@@@@@@@@@++++++++++++++++%o",
"++++++++++++++++@@@@@@@@@@@@@@@@++++++++++++++++o%",
"++++++++++++++++++++++++++++++++++++++++oooooooooo",
"++++++++++++++++++++++++++++++++++++++++++++++++o%",
"++++++++++++++++++++++++++++++++++++++++++++++++%o",
"++++++++++++++++++++++++++++++++++++++++++++++++%%",
"%%%%%%%%++++++++++++++++++++++++++++++++++++++++%%",
"%%%%%%%%++++++++++++++++++++++++++++++++++++++++%%",
"%%%%%%@&++++++++++++++++++++++++++++++++++++++++%%",
"%%%%%%&@+++++++++++++++++++++++o++++++++&+&+&&@@%%",
"=%=%==#########=##%%%%%%%%%%%%%%+&+&+&+&=%=#==$#==",
"===%###==######=%%%%%%%%%%%%%%%%&+&+&+&+%%%==$=#--"
};
