/* XPM */
static char *_f3922ac30324904efce956db319dfcfOXyrzZCjvsXz7S4C[] = {
/* columns rows colors chars-per-pixel */
"40 49 207 2 ",
"   c None",
".  c #010000",
"X  c #0A0101",
"o  c #090909",
"O  c #140000",
"+  c #1B0000",
"@  c #151A1A",
"#  c #1C1B1B",
"$  c #240000",
"%  c #2A0000",
"&  c #330000",
"*  c #3D0202",
"=  c #330909",
"-  c #241515",
";  c #2B1515",
":  c #221C1C",
">  c #2D1E1E",
",  c #311515",
"<  c #3C1313",
"1  c #3C1919",
"2  c #311919",
"3  c #222222",
"4  c #2B2B2B",
"5  c #282727",
"6  c #392525",
"7  c #343434",
"8  c #3B3A3A",
"9  c #3A3535",
"0  c #460000",
"q  c #490000",
"w  c #470808",
"e  c #550000",
"r  c #5D0000",
"t  c #510E0E",
"y  c #580C0C",
"u  c #431212",
"i  c #4D1C1C",
"p  c #471D1D",
"a  c #511717",
"s  c #640000",
"d  c #6C0000",
"f  c #6B0D0D",
"g  c #650909",
"h  c #720101",
"j  c #7C0000",
"k  c #790F0F",
"l  c #6B1212",
"z  c #601C1C",
"x  c #711313",
"c  c #4C2424",
"v  c #432A2A",
"b  c #522323",
"n  c #522929",
"m  c #453030",
"M  c #4F3232",
"N  c #403E3E",
"B  c #622E2E",
"V  c #7C2F2F",
"C  c #464545",
"Z  c #4B4A4A",
"A  c #5B4F4F",
"S  c #5A5A5A",
"D  c #505050",
"F  c #695555",
"G  c #684747",
"H  c #6F6F6F",
"J  c #636262",
"K  c #756666",
"L  c #747474",
"P  c #7A7A7A",
"I  c #840000",
"U  c #8C0000",
"Y  c #890A0A",
"T  c #920000",
"R  c #9A0000",
"E  c #960B0B",
"W  c #9C0C0C",
"Q  c #9D1111",
"!  c #A30000",
"~  c #AB0000",
"^  c #A60B0B",
"/  c #A80E0E",
"(  c #B40000",
")  c #BC0000",
"_  c #B40D0D",
"`  c #A61919",
"'  c #B41A1A",
"]  c #B81818",
"[  c #842424",
"{  c #872A2A",
"}  c #9D2222",
"|  c #9A3131",
" . c #AB2525",
".. c #AB2929",
"X. c #A72A2A",
"o. c #B22323",
"O. c #BD2929",
"+. c #BE2121",
"@. c #A73D3D",
"#. c #BA3434",
"$. c #BE3838",
"%. c #B53E3E",
"&. c #C60000",
"*. c #DB0B0B",
"=. c #D80808",
"-. c #C61717",
";. c #CB1717",
":. c #DB1212",
">. c #E40101",
",. c #E21414",
"<. c #DA2626",
"1. c #DA2F2F",
"2. c #CF3737",
"3. c #D93535",
"4. c #C92727",
"5. c #9F5353",
"6. c #A74B4B",
"7. c #B34343",
"8. c #BD4C4C",
"9. c #A95252",
"0. c #B35252",
"q. c #BC5B5B",
"w. c #BC5656",
"e. c #896F6F",
"r. c #827D7D",
"t. c #8A7E7E",
"y. c #967B7B",
"u. c #A96464",
"i. c #B76767",
"p. c #C24C4C",
"a. c #D64141",
"s. c #C15656",
"d. c #C25D5D",
"f. c #CA5A5A",
"g. c #C95555",
"h. c #D65E5E",
"j. c #C56363",
"k. c #CC6363",
"l. c #C96B6B",
"z. c #C76868",
"x. c #DA6666",
"c. c #DA6B6B",
"v. c #D06767",
"b. c #CE7B7B",
"n. c #C67B7B",
"m. c #D17D7D",
"M. c #DC7C7C",
"N. c #D77171",
"B. c #E16969",
"V. c #8E8E8E",
"C. c #888383",
"Z. c #988888",
"A. c #939393",
"S. c #9A9393",
"D. c #9D9D9D",
"F. c #AF9191",
"G. c #A29090",
"H. c #B29696",
"J. c #B98585",
"K. c #A4A3A3",
"L. c #ABABAB",
"P. c #ADA1A1",
"I. c #B0AAAA",
"U. c #BDBDBD",
"Y. c #B4B4B4",
"T. c #DC8484",
"R. c #D38C8C",
"E. c #CF9595",
"W. c #D59191",
"Q. c #DC9595",
"!. c #DD9B9B",
"~. c #D09F9F",
"^. c #E08E8E",
"/. c #DBA4A4",
"(. c #D4ABAB",
"). c #DCABAB",
"_. c #CCBFBF",
"`. c #CBB1B1",
"'. c #DEBBBB",
"]. c #D8BBBB",
"[. c #C4A5A5",
"{. c #E2A4A4",
"}. c #E2B4B4",
"|. c #E1BABA",
" X c #C3C3C3",
".X c #CAC9C9",
"XX c #DFC3C3",
"oX c #D3D2D2",
"OX c #DBDBDB",
"+X c #D8D6D6",
"@X c #E1C1C1",
"#X c #EEC6C6",
"$X c #E3CACA",
"%X c #ECCACA",
"&X c #E2D2D2",
"*X c #E4D9D9",
"=X c #EBD9D9",
"-X c #F3D8D8",
";X c #E5E4E4",
":X c #EBEBEB",
">X c #EFE2E2",
",X c #F3E2E2",
"<X c #F5EDED",
"1X c #FAEFEF",
"2X c #F5F4F4",
"3X c #FAF4F4",
"4X c #FCFBFB",
/* pixels */
"                            . . . . . . . . . . . . .                           ",
"                            w t a b b n c n n c c p u                           ",
"                      X X X Q +.#.p.s.i.q.j.q.w.0.7.V . . X                     ",
"                . . X | @.6.w.d.d.d.s.7.7.7.X.` W E k d s e . . .               ",
"                m m M q.k.k.l.z.d.8.%.......Q E T I I I j d % $ %               ",
"            . : Q.Q.!.Q.R.R.b.z.p.o./ R R R T T U I I j j j h d s X .           ",
"          . K H.XX$XXX)./.R.z.p.' / ! R R R U U U I I j j h h h d q & .         ",
"          > F.%X*X&X&X'./.R.d.#.^ ! R R R R T T U I I I j j h d d d 0 O         ",
"      . v Q.|.=X;X;X*X'./.b.$.' ! ! R R R R R U U U I j j j h d d s s r O .     ",
"      . v ^.|.&X;X*X&X'.W.k.O.] ~ ! ! R R R T T U I I I j h h h d d s r O .     ",
"      O n ^.}.$X*X$X$X/.b.p.+._ ~ ! R R R R T U U I I j j j h d d s s r + X     ",
"    X  .a.N./.|.XX'.).m.g.O._ ( ~ R R R T R R U U I I j j h h d d s s r e * .   ",
"    X ' 3.c.Q.{.).).{.!.Q.T.v.p.o.^ R R R R T E } 9.i.i.u.9.[ k d s s s r * .   ",
"    O _ 1.x.T.Q.!.!.{.#X-X,X%X!.p.` R R R R T } 0.(.XX,X$X(.5.[ d s s r r 0 X   ",
". r &.=.<.x.M.T.Q.#X1X3X4X4X4X3X,Xl...R R R X.n.,X2X3X4X4X3X:XJ.{ f s r r e q + ",
". r >.=.<.x.c.T.}.-X4X4X3X;XOX*X;XE.d.R R W i.).4X4X3X:XOXOX;X[.u.f s r e e e + ",
". s >.*.<.h.x.^.-X3X4X2X;XU.K.K. X]./.E R Q '.-X4X4X:X XL.D.U._.`.x s r r e e O ",
". s >.*.<.x.x.M.<X4X4X+XD.Z 4 4 Z V.F.R R / &X3X4XOXL.D 7 5 Z r.P.l s r e r e + ",
". r >.*.1.x.x.M.<X4X4X.XP # o o 3 L Z.R R Q =X4X4X.XA.3 o . @ J S.l s r r e e + ",
". r >.:.1.x.x.M.<X4X2XL.S . . . . S e.R R Q =X3X4XY.L . . . . C r.f s s r e e + ",
". s >.:.1.x.x.M.;X2X4X XP # . o # H y.R R ` $X2X4X.XA.# o o @ S V.f s r r e e + ",
". r >.:.1.x.x.m.oX:X4X+XA.C 5 5 C C.y.E R W .X;X4XOXL.Z 4 3 C L S.f s s e e e + ",
". r >.:.1.x.c.l.H.+X4X4XOXU.D.D.U.K.y.R R E G..X4X4X;XU.K.D.U.K.C.l s r r e e + ",
". r >.:.1.x.x.z.K L.;X4X2X;XOXoX.XP G T R E F G.;X2X2X;XOXoX.XV.A g s r r e e + ",
". r >.:.1.x.x.q.n t. X:X2X4X2X;XU.S p T R T c K U.:X2X2X2X:X XH 6 r s r r e e + ",
". r >.:.1.x.x.d.z v 8 P A.L.V.H 7 < e R R T 0 1 7 L V.L.A.P 9 2 & r s r r e e + ",
". s >.:.1.x.x.f.[ i : 8 Z S Z 9 - e d R R T s w # 8 Z S Z 8 # = 0 s s r r e e + ",
". r >.:.1.x.x.h.#.l % X . . . X $ d U R R R I r + X . . . X O 0 s s s s e e e + ",
". s >.:.1.x.x.k.2.` U e 0 & 0 r j U R R R R U j d 0 & % % * e s d s s r r e e + ",
". s >.:.1.x.x.h.2.] ~ I h d h j R R R R R R T U j s e q e e s d d s s r r e e + ",
". r >.:.1.x.x.h.2.-.) ) ) ( ( ~ ! ! ! R R R T T U I I I j j h d d d s r e e e + ",
". r >.:.1.x.x.h.2.-.) ) ( ( ~ ~ ! ! R R R R T U U U I j j h h h d s s r r e e + ",
". s >.:.1.x.x.h.3.-.) ) ( ( ~ ~ ! ! R R R R T T U I I j j h h d d d s r r e e + ",
". r >.:.1.x.x.k.2.-.) ) ( ( ~ ~ ! ! ! R R R T T U I I I j j h h d s s r r e e + ",
". r >.:.1.x.x.h.2.-.) ) ( ( ~ ~ ! ! R R R R U U U I I j j h h d d s s r e e e + ",
". r >.:.1.x.x.h.2.-.&.( ( ( ~ ~ ! ! ! R R R T T U U I j j j h h d s s s r e e + ",
". r >.:.1.x.x.h.2.-.) ) ( ( ~ ~ ! ! R R R R T T U I I j j j h d d s s r r e e + ",
". r >.:.1.x.x.h.2.-.) ) ( ( ~ ~ ! ! R R R R T U U I I j j h h d d d s r r e e + ",
". s >.:.1.x.x.x.2.-.) ) ( ( ~ ~ ! ! R R R R T T U I I I j j h h d s s s r e e + ",
". r >.:.1.x.x.k.3.;.&.) ( ( ~ ~ ! ! R R R R T T U U I j j j h h d s s r e e e + ",
". r >.:.1.x.x.f.[ k h h U ( ~ ~ ! ! R R R R T U U I I I r q q 0 0 s s r r e e + ",
". r >.:.1.x.x.0.. . . . q ( ~ ~ ! ! R R R R R U U I I j % . . . . r s s r e e + ",
". r >.:.1.B.B -         + % R ~ ~ ! R R R R T T U U s +           O & s r e e O ",
". s >.:.4.6.1 .           X f U ! ! R R R R T U U h e .           . + 0 e e e + ",
". s >.,.Q .                 @ u ~ ! R R R R R T U ; @                 . q r e + ",
". r =.g =                     , u I ! R R R T f 1                       + % e + ",
". q ) % .                       @ f U R R T I y @                       . O 0 O ",
". . X                             @ , R R T ; #                             . . ",
"                                    ; t t t :                                   "
};
