/* XPM */
static char *f53d9bbcd557413ac6fe2b708fd0476dOYlUY5UPxEzwQCGG[] = {
/* columns rows colors chars-per-pixel */
"40 49 205 2 ",
"   c None",
".  c #010000",
"X  c #0C0101",
"o  c #0C0B0B",
"O  c #120101",
"+  c #1E0000",
"@  c #190808",
"#  c #141414",
"$  c #1C1B1B",
"%  c #181616",
"&  c #250000",
"*  c #2B0000",
"=  c #260D0D",
"-  c #350000",
";  c #3A0101",
":  c #3B0B0B",
">  c #251212",
",  c #271D1D",
"<  c #2B1818",
"1  c #252525",
"2  c gray16",
"3  c #392323",
"4  c #322C2C",
"5  c #312727",
"6  c #343333",
"7  c #3B3B3B",
"8  c #393232",
"9  c #440000",
"0  c #4D0000",
"q  c #550000",
"w  c #5B0000",
"e  c #520C0C",
"r  c #481C1C",
"t  c #511E1E",
"y  c #511515",
"u  c #630000",
"i  c #6B0000",
"p  c #670D0D",
"a  c #730000",
"s  c #7B0000",
"d  c #760B0B",
"f  c #691A1A",
"g  c #731313",
"h  c #7E1919",
"j  c #4D2222",
"k  c #422E2E",
"l  c #462121",
"z  c #522525",
"x  c #512929",
"c  c #433E3E",
"v  c #463030",
"b  c #503D3D",
"n  c #632121",
"m  c #7C2B2B",
"M  c #712424",
"N  c #6A3C3C",
"B  c #743434",
"V  c #7B3B3B",
"C  c #454444",
"Z  c #4C4B4B",
"A  c #484747",
"S  c #545353",
"D  c #5C5B5B",
"F  c #585757",
"G  c #635454",
"H  c #725C5C",
"J  c #646363",
"K  c #686868",
"L  c #736F6F",
"P  c #7B7373",
"I  c #830000",
"U  c #8B0000",
"Y  c #870A0A",
"T  c #930000",
"R  c #9A0000",
"E  c #9B0D0D",
"W  c #950C0C",
"Q  c #8C1414",
"!  c #971E1E",
"~  c #A40000",
"^  c #AC0000",
"/  c #AF0E0E",
"(  c #B40000",
")  c #BD0000",
"_  c #B30C0C",
"`  c #AB1313",
"'  c #A21B1B",
"]  c #B61515",
"[  c #892323",
"{  c #992323",
"}  c #992525",
"|  c #8D3535",
" . c #953737",
".. c #AA2C2C",
"X. c #A32222",
"o. c #BA2424",
"O. c #B42525",
"+. c #A43E3E",
"@. c #AB3939",
"#. c #B43333",
"$. c #BE3232",
"%. c #BE3C3C",
"&. c #C30000",
"*. c #CF0606",
"=. c #D60000",
"-. c #DC0404",
";. c #DC0C0C",
":. c #C11A1A",
">. c #DA1212",
",. c #DA1D1D",
"<. c #E01A1A",
"1. c #CA2727",
"2. c #C72A2A",
"3. c #C83F3F",
"4. c #D63030",
"5. c #E12626",
"6. c #884444",
"7. c #984949",
"8. c #A84545",
"9. c #BB4242",
"0. c #B34A4A",
"q. c #B44444",
"w. c #B65252",
"e. c #BD5B5B",
"r. c #B85959",
"t. c #A85A5A",
"y. c #886363",
"u. c #A66868",
"i. c #B36969",
"p. c #AC7575",
"a. c #C14747",
"s. c #D14040",
"d. c #C25353",
"f. c #C45D5D",
"g. c #CA5959",
"h. c #DB5C5C",
"j. c #C26161",
"k. c #CB6A6A",
"l. c #C96A6A",
"z. c #D66464",
"x. c #D96666",
"c. c #DB6B6B",
"v. c #CC7474",
"b. c #C97A7A",
"n. c #D87575",
"m. c #828282",
"M. c #8A8A8A",
"N. c #8D8484",
"B. c #938F8F",
"V. c #959595",
"C. c #9B9B9B",
"Z. c #A88C8C",
"A. c #A19E9E",
"S. c #B19494",
"D. c #A5A5A5",
"F. c #ADADAD",
"G. c #B2ABAB",
"H. c #B3B3B3",
"J. c #BBBBBB",
"K. c #C38585",
"L. c #CC8585",
"P. c #DB8383",
"I. c #D68A8A",
"U. c #CB9292",
"Y. c #D49494",
"T. c #DC9595",
"R. c #DD9999",
"E. c #D49A9A",
"W. c #E19D9D",
"Q. c #DDA4A4",
"!. c #DDA9A9",
"~. c #C6BFBF",
"^. c #DCB2B2",
"/. c #D6B9B9",
"(. c #DBBCBC",
"). c #E2A4A4",
"_. c #E3ADAD",
"`. c #E0BEBE",
"'. c #E9BABA",
"]. c #E0B5B5",
"[. c #C5C5C5",
"{. c #CBCCCC",
"}. c #D9C3C3",
"|. c #D4D4D4",
" X c #DCDDDD",
".X c #E1C5C5",
"XX c #EEC4C4",
"oX c #E2CCCC",
"OX c #EAC9C9",
"+X c #F1CDCD",
"@X c #E3D5D5",
"#X c #ECD5D5",
"$X c #E4DCDC",
"%X c #EDDDDD",
"&X c #F0D1D1",
"*X c #E3E3E3",
"=X c #EBECEC",
"-X c #F8E7E7",
";X c #F4E9E9",
":X c #F7E7E7",
">X c #EDF0F0",
",X c #F5F4F4",
"<X c #FBF5F5",
"1X c #FCFCFC",
"2X c #F7F8F8",
/* pixels */
"                              . . . . . . . . . . . .                           ",
"                            : e y t z x x x x x j j r @                         ",
"                      . o . e :.$.%.d.f.j.f.e.e.w.0. .@ . .                     ",
"                . . . M @.8.w.g.j.f.e.0.q.0...' E W Q a i u + . .               ",
"                k k k 8.z.k.l.l.j.d.q.......' W T U I I s s ; & & O             ",
"              . p.W.R.T.Y.I.b.v.d.#.` E R R T T U U I s s s a a a & .           ",
"          . c Z./..X.X^.Q.Y.v.f.O.` ~ R R R T T U U I I s a a a i w 9 X         ",
"          < H OX@X@X@X}.!.Y.n.a./ ~ ~ R R R T T U U I I I s a a i i w O O       ",
"      . o K.!.@X*X*X$XoX^.L.d.] ~ ~ R R R R T T U U I I s s a a i i u w - .     ",
"      . o b.).@X$X$X@X`.Q.l.a.] ^ ~ ~ R R R T T U U I I s s a a i i u u - .     ",
"      @ = v.W..X@X@XoX^.Y.g.$.] ^ ~ ~ R T R T T U U I I s s a a i i i u - X     ",
"    . g 4.c.I.].`.`.^.I.l.2.] ^ ~ ~ R R R R T T U U I s s a a a i i u u q q X . ",
"    . g 5.z.P.).!._.).Q.T.P.n.g.$.` ~ R R R T T ! 8.r.i.i.t.| Q i i i w w q X . ",
"    X d <.h.n.T.T.R.).'.+X:X+X'.f.#.R R R R T W 8.K..X%X@X(.u.| i i i w w q O . ",
". + ) *.;.h.c.P.T._.-X<X<X1X1X<X:XQ.#.` R T X.0.#X;X<X1X1X<X;X(.| f u w w w 0 - ",
". + =.-.>.h.c.n.).XX1X1X1X=X$X X*X/.l.! R R 0.L.<X1X1X=X*X X*X{.p.[ u u w w q - ",
". + =.-.;.h.x.n.XX-X1X1X>X[.F.C.J.~.(...T R L.#X1X1X,X{.H.C.H.[.{.6.u u w w q ; ",
". + =.;.>.h.x.c.&X2X1X*XJ.F 7 1 C L G.X.R R Y.,X1X=X{.J 7 1 C J F.| u u w w q - ",
". + =.;.,.h.x.x.&X2X1X|.D.2 # . % Z C.} R T E.1X1X XH.6 # . # 7 C.V u w w w q - ",
". + =.;.,.h.x.x.&X2X1X[.M.o . . . 6 m.! R T E.2X1X|.V.# . . . , m.B u u w w q - ",
". + =.;.,.h.x.x.oX=X1X|.D.1 o . % Z V.! R R I.=X1X XH.6 # . # 7 V.B u w w w q - ",
". + =.;.,.h.x.c.(.*X1X*XJ.S 6 $ c J C.{ R T S. X1X*X[.D 7 % 7 F C.V u u w w q - ",
". + =.;.,.h.x.x.S.J.1X1X>X[.F.C.J.F.V.{ R R u.H.1X1X,X[.H.C.H.H.V.B u w w w q - ",
". + =.;.,.h.x.x.y.m.*X,X2X*X X|.{.C.G Q R R V P  X=X2X=X X|.{.G.D n i u w w w - ",
". + =.;.,.h.x.x.N G J. X,X2X2X,X[.M.3 Y R R f b H.|.,X,X2X,X{.C.4 e u w w w q - ",
". + =.;.,.h.x.x.m t 4 K M.F.C.P c 3 9 I R R w : 6 D M.D.C.m.A 4 * q i u w w q - ",
". + =.;.,.h.x.x. .f > 8 C F Z C , : i U R R a q > 4 C F Z C , = 9 w u u w w q - ",
". + =.;.,.h.x.x.%.{ * O . . . . + 0 U T R R U a & O . . . . O * u u u w w w q ; ",
". + =.;.,.h.x.x.3.2.T u 0 - 9 0 a U R R R R T U i q ; * * - 0 w i i u u w w q ; ",
". + =.;.,.h.x.x.3.2.^ T s i a a T R ~ R R R T T I i w 0 q q u i i i u u w w q - ",
". + =.;.,.h.x.x.s.1.) ) ( ( ( ^ ~ ~ R R R T T T U U U I s s a a i i u w w w q - ",
". + =.;.,.h.x.x.s.1.&.) ( ( ^ ^ ^ ~ R R R R T T U U I I s s a i i i u u w w q - ",
". + =.;.,.h.c.x.3.1.&.( ( ( ( ^ ~ ~ R R R T T T U U I I s s a a i i u u w w q - ",
". + =.;.,.h.x.x.s.1.&.) ( ( ^ ^ ~ ~ ~ R R R T T U U I I s s a a i i u u w w q ; ",
". + =.;.,.h.x.x.s.1.&.( ( ^ ^ ^ ~ ~ R R R T T T U U I I s s a a i u u u w w q - ",
". + =.;.,.h.x.x.s.1.) ) ( ( ( ^ ^ ~ R R R R T T U U I I s s a a i i u u w w q - ",
". + =.;.,.h.x.x.s.1.&.) ( ( ^ ^ ~ ~ R R R R T T U U U I s s a a i i u u w w q - ",
". + =.;.,.h.x.x.s.1.) ) ) ( ^ ^ ~ ~ ~ R R R T U U U I s s s a i i i u u w w w - ",
". + =.;.,.h.c.x.s.1.&.( ( ( ( ^ ^ ~ R T T T T T U U I I s s a a i i u u w w q - ",
". + -.;.,.h.x.x.s.1.&.( ( ( ^ ^ ~ ~ ~ - X X u R U U I I s s a a i i u u w w q - ",
"  + I _ <.h.x.x.s.1.) ( ( ( ^ ^ ~ U u + . . 9 u U U I I s s a a i i u u w q ; & ",
"    . g <.h.x.x.s.1.&.) ) ( ^ ^ ^ u .       . X I U I s s s a a i i u u w q X . ",
"      & : f.c.x.s.1.) ) ( ( ( ^ - +             + q U I s s a a i i u u ; O     ",
"        X 7.w.x.s.1.&.( ( ( R a O               . - u s s s a a i i u 9 * .     ",
"          . z c.s.1.&.( ( ( w .                     X i I s a a i i w X .       ",
"            < l #.1.&.) ^ 9 *                         & 9 s a a i ; +           ",
"              . [ O.&.^ U .                           . & u a i w & .           ",
"                . - &.9 .                                 X w w X               ",
"                  & q *                                     * *                 "
};
