/* XPM */
static char *c4b819843add4e5a95b59668ffc4da2dsMYXxbqiRn5kSmFW[] = {
/* columns rows colors chars-per-pixel */
"50 50 130 2 ",
"   c black",
".  c #0C0C0C",
"X  c #101010",
"o  c #020202",
"O  c gray4",
"+  c #0D0E0E",
"@  c #010000",
"#  c #180305",
"$  c #46060D",
"%  c #47070E",
"&  c #6F0A15",
"*  c #750A16",
"=  c #040101",
"-  c #930D1B",
";  c #9C0D1D",
":  c #080102",
">  c #130204",
",  c #AF0F20",
"<  c #B91021",
"1  c #1C0305",
"2  c #2C0408",
"3  c #C31023",
"4  c #C91124",
"5  c #3B050B",
"6  c #4C070E",
"7  c #CD1125",
"8  c #D01125",
"9  c #630912",
"0  c #710A15",
"q  c #D11126",
"w  c #8B0C19",
"e  c #030001",
"r  c #060101",
"t  c #940D1B",
"y  c #AC0E1F",
"u  c #150204",
"i  c #B10F20",
"p  c #CF1125",
"a  c #C41023",
"s  c #2E0409",
"d  c #1A0205",
"f  c #190204",
"g  c #160204",
"h  c #40060C",
"j  c #CE1125",
"k  c #1E0306",
"l  c #200306",
"z  c #210306",
"x  c #190305",
"c  c #45070E",
"v  c #B50F21",
"b  c #B40F20",
"n  c #BC1022",
"m  c #BA1022",
"M  c #BB1022",
"N  c #B70F21",
"B  c #510810",
"V  c #740B16",
"C  c #D01126",
"Z  c #7D0B17",
"A  c #090102",
"S  c #0D0203",
"D  c #870C19",
"F  c #D11125",
"G  c #120204",
"H  c #170205",
"J  c #9B0D1C",
"K  c #A90E1F",
"L  c #210406",
"P  c #250407",
"I  c #AC0F1F",
"U  c #B90F21",
"Y  c #35050A",
"T  c #37050A",
"R  c #B91022",
"E  c #C51124",
"W  c #4B070E",
"Q  c #C21023",
"!  c #CB1125",
"~  c #670914",
"^  c #020001",
"/  c #070102",
"(  c #990D1C",
")  c #C01023",
"_  c #270408",
"`  c #AB0E1F",
"'  c #44060D",
"]  c #2A0408",
"[  c #C11023",
"{  c #680913",
"}  c #4A070E",
"|  c #8C0C1A",
" . c #030101",
".. c #6E0A14",
"X. c #B00F20",
"o. c #9F0E1E",
"O. c #110203",
"+. c #050101",
"@. c #920D1A",
"#. c #37050B",
"$. c #9A0E1C",
"%. c #290408",
"&. c #140204",
"*. c #D21126",
"=. c #46070D",
"-. c #200406",
";. c #A30E1E",
":. c #49060D",
">. c #C41024",
",. c #C71124",
"<. c #550810",
"1. c #280408",
"2. c #AB0F1F",
"3. c #D41226",
"4. c #6D0914",
"5. c #4F070F",
"6. c #CA1125",
"7. c #630913",
"8. c #2F0509",
"9. c #B40F21",
"0. c #940C1B",
"q. c #3A060B",
"w. c #980D1C",
"e. c #170204",
"r. c #48070E",
"t. c #0E0203",
"y. c #36050B",
"u. c #1D0306",
"i. c #020101",
"p. c white",
/* pixels */
"                                                                                                    ",
"                                                                                              . X o ",
"                                                                                              O + o ",
"                                                                                                    ",
"                                                                                                    ",
"                                                                                                    ",
"                                                                                                    ",
"                                                                                                    ",
"                                                @                                                   ",
"                                              # #                                                   ",
"                                              $ %                                                   ",
"                                              & *                                                   ",
"                                            = - ; :                                                 ",
"                                            > , < 1                                                 ",
"                                            2 3 4 5                                                 ",
"                                            6 7 8 9                                                 ",
"                                            0 q q w e                                               ",
"                                          r t q 8 y >                                               ",
"                                          u i 8 p a s                                               ",
"                          @ > d f f f f g h a p j j 9 k l l l l z x @                               ",
"                            c , v v v v b n j j j j a m m m m M N B                                 ",
"                            r V p 8 8 8 8 p j j j j p p p p 8 C Z A                                 ",
"                              S D 8 j j j j j j j j j j j j F t G                                   ",
"                                H J F j j j j j j j j j j F K L                                     ",
"                                  P I 8 j j j j j j j j 8 U Y                                       ",
"                                    T R 8 j j j j j j p E 6                                         ",
"                                      W Q p j j j j j ! ~ ^                                         ",
"                                      / ( q j j j j p ) _                                           ",
"                                      G ` 8 j j j j j ! '                                           ",
"                                      ] [ p j j j j j q {                                           ",
"                                      } 7 j j p 8 j j q |  .                                        ",
"                                      ..q j 8 X.o.p j 8 ` O.                                        ",
"                                    +.@.q 8 R #.x $.F p ) %.                                        ",
"                                    &., *.) =.    -.;.F 7 :.                                        ",
"                                    s >.,.<.        1.2.3.4.                                        ",
"                                    5.6.7.^           8.9.0.+.                                      ",
"                                    0 * r               q.w.e.                                      ",
"                                  r r.t.                  y.u.                                      ",
"                                  @ =                       i.                                      ",
"                                                                                                    ",
"                                                                                                    ",
"                                                                                                    ",
"                                                                                                    ",
"                                                                                                    ",
"                                                                                                    ",
"                                                                                                    ",
"                                                                                                    ",
"                                                                                                    ",
"                                                                                                    ",
"                                                                                                    "
};
