/* XPM */
static char *b9aface2ea3f412180bc114cb10e274123jDfnL3WemIQf8Z[] = {
/* columns rows colors chars-per-pixel */
"43 46 130 2 ",
"   c None",
".  c black",
"X  c #020100",
"o  c #040200",
"O  c #0C0500",
"+  c #0E0900",
"@  c #150D00",
"#  c #191200",
"$  c #1F1500",
"%  c #200D00",
"&  c #271700",
"*  c #291E00",
"=  c #2E1F00",
"-  c #321900",
";  c #391F00",
":  c #322700",
">  c #382800",
",  c #3F2800",
"<  c #3A2E00",
"1  c #432200",
"2  c #4A2400",
"3  c #403200",
"4  c #423500",
"5  c #4A3000",
"6  c #543000",
"7  c #5C3400",
"8  c #543800",
"9  c #5B3900",
"0  c #623D00",
"q  c #514100",
"w  c #5E4100",
"e  c #5C4B00",
"r  c #614400",
"t  c #694500",
"y  c #654A00",
"u  c #6B4B00",
"i  c #724D00",
"p  c #655100",
"a  c #6B5300",
"s  c #6A5403",
"d  c #6D5800",
"f  c #755200",
"g  c #7A5500",
"h  c #755B00",
"j  c #7F5B00",
"k  c #786100",
"l  c #7D6600",
"z  c #825D00",
"x  c #856300",
"c  c #8A6600",
"v  c #856B00",
"b  c #8E6A00",
"n  c #926E00",
"m  c #8E7300",
"M  c #967300",
"N  c #9A7700",
"B  c #947B00",
"V  c #9E7B00",
"C  c #A27F00",
"Z  c #A68300",
"A  c #A08400",
"S  c #AA8700",
"D  c #A78A00",
"F  c #AD8B00",
"G  c #B28F00",
"H  c #B69300",
"J  c #BA9700",
"K  c #BE9B00",
"L  c #BD9C03",
"P  c #B2910C",
"I  c #C29F00",
"U  c #C6A300",
"Y  c #CAA700",
"T  c #CEAB00",
"R  c #CEAE08",
"E  c #D2AF00",
"W  c #D6B300",
"Q  c #DAB700",
"!  c #DEBB00",
"~  c #C2A313",
"^  c #E2BF00",
"/  c #D5B822",
"(  c #D8BB2B",
")  c #D8BB2C",
"_  c #E4C201",
"`  c #E5C504",
"'  c #E7C60A",
"]  c #E8C910",
"[  c #E8C911",
"{  c #E9CA14",
"}  c #EACD1F",
"|  c #ECCF27",
" . c #E5CA33",
".. c #ECD232",
"X. c #EDD339",
"o. c #EED53E",
"O. c #E7CE42",
"+. c #F0D94E",
"@. c #F1DA52",
"#. c #F2DC5A",
"$. c #F2DD63",
"%. c #F4E06C",
"&. c #F4E273",
"*. c #F5E47C",
"=. c #F5E583",
"-. c #F7E88F",
";. c #F7EA94",
":. c #F8EC9E",
">. c #F8EC9F",
",. c #F8EDA1",
"<. c #F9EEA7",
"1. c #F9EEAC",
"2. c #F9EFAE",
"3. c #FAF0B4",
"4. c #FAF1B6",
"5. c #FAF2BC",
"6. c #FBF4C7",
"7. c #FBF4C9",
"8. c #FBF5CB",
"9. c #FCF6D1",
"0. c #FCF6D2",
"q. c #FCF7D8",
"w. c #FCF7DA",
"e. c #FEFBEB",
"r. c #FEFCEE",
"t. c #FEFCF4",
"y. c #FEFDF5",
"u. c #FEFDF9",
"i. c #FEFEFA",
"p. c #FFFEFD",
/* pixels */
"                                                                                      ",
"                                                                                      ",
"                                                                                      ",
"                              . . . . . . . . . . . . . .                             ",
"                            # * : > < < 3 3 4 3 4 < < : *                             ",
"                      . . . > b C G U Y T T E E W T K F h . . .                       ",
"                . . . > r f m F J K U Y Y T E E W W W W K B v s . . .                 ",
"                + @ @ r n Z G L I I Y Y T E W W ! ! ! ! ! W U Z * * *                 ",
"              . 8 g n Z H J J K U U Y T E W W Q ! ! ^ ^ _ ` ] ' R J Z o .             ",
"          . @ 5 g n Z F J J K I U Y T E E W W Q ^ ^ ` ] | ..X.o. ./ ~ s 4 .           ",
"          . = g n N F H H J J K G H H U E W Q Q ^ _ ' | o.#.$.$.$.O.) P s O           ",
"        . 8 i c C F G G J J H B # . . l H W ! ^ _ ] | #.*.<.3.4.<.=.$.( ~ Z # .       ",
"        . y x N Z F G H J K m 4 o . . : s Q ! ^ _ | X.*.:.8.q.q.8.<.=.O./ L & .       ",
"        . g n S S F G H J I p . . . . . $ W ! _ _ | @.>.5.r.y.u.t.7.,.#. .R * .       ",
"    . & 0 n C Z F F G H J K y . . . . . $ Q ! _ ] ..#.1.0.u.p.p.u.w.3.$.O.' D d .     ",
"    . : i V C S S F G H J K v : . . . * e Q ! _ ] | #.<.8.y.u.u.y.0.2.$.X.[ U v .     ",
"    . > x N Z Z S F G H J K A A # o . k H Q ! ^ ` | @.>.5.e.t.t.e.6.>.#..._ W m .     ",
"  . . o @ @ 3 b Z F G H J J J H A A A I T Q ! ^ _ { X.$.;.5.6.8.5.;.&...{ _ ! I v * . ",
"  . . . . . $ e h l v A D J I U Y T E E W W ! _ _ ' } +.%.-.>.>.-.&.#.| ] _ _ E G : . ",
"              . . . . q B H I Y U Y Y E E W Q Q ^ _ ` } ..+.#.#.+...| ' _ ! ! W K < . ",
"                      * * < < < B H T T W W Q Q ! ^ _ ` ] | | | } { ` _ ^ ! Q Q T < . ",
"                        . . . . a m D F J T W Q ! Q ^ _ _ _ ' ` ` _ _ ! ! Q Q Q W < . ",
"                                . . . o $ A Y Q ! Q Q ^ ^ ^ _ ^ ^ ! ! ! Q Q W W E < . ",
"                                        + < q e e A Q Q Q ! ! ! ! ! ! Q Q W W T T < . ",
"                                          . o . . p Q W Q Q Q Q Q Q W W W W E E T < . ",
"                                . . . . @ v F K I U W E W W W W W W E E E E Y Y T < . ",
"                                : 3 q q p D K Y T T E E E E E E E E E T T T Y U U < . ",
"                      . . . o . k A U I I Y U U Y Y T T T T E T E T T T Y Y U U U < . ",
"              . . . . 3 d m m B S G J K K I I U U U U Y Y T T T Y Y Y U U U U K F = . ",
"            + $ * = = y M Z F F G G H J H K K I I I U U U U U Y U U U U U U I H N = . ",
". . . . . . $ h b N C V Z Z S F F G H H H J K J I I I I I I U I U U I I K I K F x & . ",
"    . $ 8 y f c M N B V C Z Z S F F G G G H J J J J J I I I K I K K K K J J F v $     ",
"    . = u c n n n N M C C C C S S F F G G H H H H H K J J I J K I J K K H H C p .     ",
"    . % 6 z c b n n n n N C C C C C S F F G G G G H H H J H H H J H H H H G n w .     ",
"      O % t z c b n N N N N C C C C S S S F F F G G G G G G H G H G G G F V 3 &       ",
"        . 8 i z b n b M n C N C C C C S C S F S F G F G G G G G G G G F C b + .       ",
"        . 1 7 i z b b n M n M N C C C Z C Z Z S S S S S F F F F F F S M c g O .       ",
"        . % - 0 i z c b n n N N N N N V V Z C Z Z Z S S S S S S S C N x t : O         ",
"          . O 2 0 i z c b n n M M N N V V V C V Z Z Z C C S C S C N z i > .           ",
"              o ; 0 g z c b b n n M M N N V V V V V V C C C C C n z t O o             ",
"              . % - , 0 f z z b n n M M M N N N N V V V N M b z q 5 1 .               ",
"                . . . & 6 t g c b b n M n M M M N N N N n j i 6 . . .                 ",
"                      o O O ; 0 i z b n n n b M N b z f 8 @ + O                       ",
"                        . . % ; 5 9 y y y u p p u y 9 5 = . . .                       ",
"                              . . . . . . . . . . . . . .                             ",
"                                                                                      "
};
