/* XPM */
static char *result[] = {
/* columns rows colors chars-per-pixel */
"43 46 120 2 ",
"   c #000000",
".  c #090600",
"X  c #0C0900",
"o  c #140D00",
"O  c #161100",
"+  c #1B1500",
"@  c #1F1901",
"#  c #241400",
"$  c #231C00",
"%  c #2B1D00",
"&  c #351F00",
"*  c #2D2301",
"=  c #322400",
"-  c #3C2400",
";  c #352B00",
":  c #3B2C00",
">  c #3D3200",
",  c #452700",
"<  c #412C00",
"1  c #4B2900",
"2  c #423500",
"3  c #4B3300",
"4  c #443800",
"5  c #553300",
"6  c #5C3700",
"7  c #553B00",
"8  c #5B3C00",
"9  c #623F00",
"0  c #524300",
"q  c #5E4300",
"w  c #5C4C00",
"e  c #614600",
"r  c #694700",
"t  c #654B00",
"y  c #6B4C00",
"u  c #714E00",
"i  c #655200",
"p  c #6B5400",
"a  c #6D5900",
"s  c #6A550A",
"d  c #745300",
"f  c #795600",
"g  c #745B00",
"h  c #7E5B00",
"j  c #776100",
"k  c #7C6600",
"l  c #815D00",
"z  c #846300",
"x  c #896600",
"c  c #846B00",
"v  c #8D6A00",
"b  c #916E00",
"n  c #8D7200",
"m  c #957200",
"M  c #997600",
"N  c #937A00",
"B  c #9D7A00",
"V  c #A17E00",
"C  c #9F8300",
"Z  c #A58200",
"A  c #A98600",
"S  c #A68900",
"D  c #AC8A00",
"F  c #B18E00",
"G  c #B59200",
"H  c #B99600",
"J  c #BD9A00",
"K  c #BC9B0A",
"L  c #B19014",
"P  c #C19E00",
"I  c #C5A200",
"U  c #C9A600",
"Y  c #CDAA00",
"T  c #D1AE00",
"R  c #D5B200",
"E  c #D9B600",
"W  c #DDBA00",
"Q  c #CDAD10",
"!  c #C1A21A",
"~  c #E1BE01",
"^  c #D4B727",
"/  c #D7BA2F",
"(  c #D7BA30",
")  c #E3C105",
"_  c #E4C40C",
"`  c #E6C512",
"'  c #E7C817",
"]  c #E7C818",
"[  c #E8C91B",
"{  c #E9CC24",
"}  c #EBCE2B",
"|  c #E4C936",
" . c #ECCF31",
".. c #ECD135",
"X. c #EDD23C",
"o. c #E6CD44",
"O. c #EED440",
"+. c #F0D84F",
"@. c #F1D953",
"#. c #F2DB5A",
"$. c #F2DC63",
"%. c #F4DF6C",
"&. c #F4E172",
"*. c #F5E37B",
"=. c #F5E482",
"-. c #F7E78E",
";. c #F7E993",
":. c #F8EB9E",
">. c #F9EDA3",
",. c #F9EFAC",
"<. c #FAF0B3",
"1. c #FAF2BB",
"2. c #FBF3C4",
"3. c #FCF5CA",
"4. c #FCF7D4",
"5. c #FCF7D9",
"6. c #FEFCEC",
"7. c #FEFDF5",
"8. c #FEFEFA",
"9. c None",
/* pixels */
"9.9.9.9.9.9.9.9.9.9.9.9.9.9.9.9.9.9.9.9.9.9.9.9.9.9.9.9.9.9.9.9.9.9.9.9.9.9.9.9.9.9.9.",
"9.9.9.9.9.9.9.9.9.9.9.9.9.9.9.                            9.9.9.9.9.9.9.9.9.9.9.9.9.9.",
"9.9.9.9.9.9.9.9.9.9.9.9.    # - 3 q t t t y p y p t 8 1 -       9.9.9.9.9.9.9.9.9.9.9.",
"9.9.9.9.9.9.9.9.9.9.9.X o o - 9 d l v v b b b m m v z d 7 + O o 9.9.9.9.9.9.9.9.9.9.9.",
"9.9.9.9.9.9.9.9.      % 5 r f x x v b b b m m m M M M M v h r 7       9.9.9.9.9.9.9.9.",
"9.9.9.9.9.9.9.  # & < q u l x x b b b m m M M M M B M B B m v l 7 3 : . 9.9.9.9.9.9.9.",
"9.9.9.9.9.9.9.. , 6 u l x b b b b m m M M B B B B B V V V Z Z B b l y o X 9.9.9.9.9.9.",
"9.9.9.9.9.  o 1 9 u x x x b b b m M M B B B B V V Z Z V Z Z Z Z Z b x u :   9.9.9.9.9.",
"9.9.9.9.  # - 9 u h v v b b M M M M V V V V V V Z Z Z A A A A A A V M l r - o 9.9.9.9.",
"9.9.9.9.  , 6 y z x v b b b M M M V V V V V A A A A D A A D A D D D A M z f o   9.9.9.",
"9.9.9.9.  7 d z x b b m M M M B V V V A A A A D D D F F F F F F F F F F V v O   9.9.9.",
"9.9.9.o # r h v b b b m M M V V V V V A A D D F F F F F G F G F F F F F D B 4 $ 9.9.9.",
"9.9.  # 5 l v v b b m M M V V V V V D D F F F F G F G G G G G H G G G F G G v q   9.9.",
"9.9.  = u x v v b m M B B V V Z D D D F F G F G G G J H J J J J J J J J H G B p   9.9.",
"9.9.  $ 5 t d x m m B B V V Z A A D F F F G G G J J J J P P J P P J J J J H D z $ 9.9.",
"            $ g b B B V V A A D F F F G H G J J P P P P P P P P I P P J P P J D z %   ",
"9.9.9.9.9.9.O $ * = = t n S D D F F H H J J J P P P I I U I U I U I I I P P J G B *   ",
"9.9.9.9.9.9.9.        4 a v m N A F G P J J P P I I I U U U Y U U U U U U I I H D =   ",
"9.9.9.9.9.9.9.9.9.9.9.    . . . g C P P I I I I U U Y U Y T Y T Y Y Y U U U U I I >   ",
"9.9.9.9.9.9.9.9.9.9.9.9.9.9.9.9.: 4 7 7 i S J Y Y Y T T T T T T R T T Y Y U U U U >   ",
"9.9.9.9.9.9.9.9.9.9.9.9.9.9.9.9.        O n S J J U T T R R R R R R R R T Y Y U U >   ",
"9.9.9.9.9.9.9.9.9.9.9.9.9.9.9.9.9.9.9.9.9.. X X . i W E E E E E E E R R R R Y Y U >   ",
"9.9.9.9.9.9.9.9.9.9.9.9.9.9.9.9.9.9.9.9.O > 0 w w C W E E W W W W W W R E R R T Y >   ",
"9.9.9.9.9.9.9.9.9.9.9.9.9.9.9.9.  . .   * C I E E E E W ~ ~ ~ ~ ~ W W W W E R R R >   ",
"9.9.9.9.9.9.9.9.9.9.9.9.        i n S S G U T E E W ~ ~ ) _ ` ` _ ) ) W W W R R R >   ",
"9.9.9.9.9.9.9.9.9.9.9.$ * > > > C G T T R R E E W ~ ) _ ] { } } { ' _ ) ~ W W R Y >   ",
"9.9.9.9.9.9.9.        0 M H J I I I U T T R E W ~ ) _ { ..+.#.#.+.X.} _ ) ~ W T P :   ",
"9.          $ w g k k B D H P I U U Y R R R W W ~ ` { @.%.-.:.>.;.&.@.} ' ~ ~ T D ;   ",
"9.    X + + 2 v Z D G G H J H G C C C P Y E E ~ ) [ ..%.-.1.2.3.1.;.&.X.{ ) W I c *   ",
"9.9.  : z M B A A D D G H J D N @ . . j G E W ~ _ } @.;.1.6.7.7.6.2.:.@...` Q n   9.9.",
"9.9.  = d M Z Z D D G G H J c ; X   . * w T W ~ ` ..#.>.3.7.8.8.7.4.,.$...` I c   9.9.",
"9.9.  % 9 m V Z D D D G G I i           * R W ~ ` ..#.,.4.8.8.8.8.5.<.$.X.` D a   9.9.",
"9.9.9.9.X f m A A D F G H P i           * R W ~ _ } @.:.1.6.8.7.6.3.>.@.| Q * . 9.9.9.",
"9.9.9.9.  r z M Z D D G G P n 2 X     > a R W ~ _ { X.*.>.3.5.5.3.,.=.o.( K @   9.9.9.",
"9.9.9.9.  8 d x B D F G G J D N @ . . k G R E ~ ) ` } #.*.>.<.<.>.=.$./ ! Z @   9.9.9.",
"9.9.9.9.9.. % f v B D G G J J H F G G U Y E E W ~ _ ' } X.#.$.%.#.o./ L s o 9.9.9.9.9.",
"9.9.9.9.9.  + 3 f v Z D G H J P I U U Y R R R W W ~ _ ' { ..X.O.| ^ ! s 2   9.9.9.9.9.",
"9.9.9.9.9.9.9.  7 h v A G H H P I I U U Y R R E E ~ ~ ) _ _ ' ` Q K C X   9.9.9.9.9.9.",
"9.9.9.9.9.9.9.9.O O + e b Z F J I I U U Y T T R E E W ~ E Y K C * * * 9.9.9.9.9.9.9.9.",
"9.9.9.9.9.9.9.9.      : e d n F G J I U Y Y T R E R T T J C c a       9.9.9.9.9.9.9.9.",
"9.9.9.9.9.9.9.9.9.9.9.      : v C F I I U T Y T R U J F g       9.9.9.9.9.9.9.9.9.9.9.",
"9.9.9.9.9.9.9.9.9.9.9.9.9.9.# * = : > 4 > 4 4 4 4 4 > ; * 9.9.9.9.9.9.9.9.9.9.9.9.9.9.",
"9.9.9.9.9.9.9.9.9.9.9.9.9.9.9.                            9.9.9.9.9.9.9.9.9.9.9.9.9.9.",
"9.9.9.9.9.9.9.9.9.9.9.9.9.9.9.9.9.9.9.9.9.9.9.9.9.9.9.9.9.9.9.9.9.9.9.9.9.9.9.9.9.9.9.",
"9.9.9.9.9.9.9.9.9.9.9.9.9.9.9.9.9.9.9.9.9.9.9.9.9.9.9.9.9.9.9.9.9.9.9.9.9.9.9.9.9.9.9.",
"9.9.9.9.9.9.9.9.9.9.9.9.9.9.9.9.9.9.9.9.9.9.9.9.9.9.9.9.9.9.9.9.9.9.9.9.9.9.9.9.9.9.9."
};
