/* XPM */
static char *ae5b512b4f0740e8efe2b9717ef7667353ZbSsiRkNLEER14[] = {
/* columns rows colors chars-per-pixel */
"46 44 135 2 ",
"   c None",
".  c #000000",
"X  c #090700",
"o  c #0B0900",
"O  c #130D00",
"+  c #1A0F00",
"@  c #161100",
"#  c #1B1400",
"$  c #1F1A00",
"%  c #251700",
"&  c #241B00",
"*  c #2C1B00",
"=  c #321C00",
"-  c #272103",
";  c #2B2100",
":  c #312400",
">  c #392300",
",  c #352A00",
"<  c #3C2C00",
"1  c #3E3300",
"2  c #422400",
"3  c #442D00",
"4  c #4F2D00",
"5  c #423500",
"6  c #4D3400",
"7  c #453900",
"8  c #4C3C00",
"9  c #543500",
"0  c #583700",
"q  c #543B00",
"w  c #5C3C00",
"e  c #4F4100",
"r  c #544401",
"t  c #5B4400",
"y  c #574800",
"u  c #5C4C01",
"i  c #624300",
"p  c #6A4700",
"a  c #644C00",
"s  c #6B4B00",
"d  c #714F00",
"f  c #6B5300",
"g  c #6A5909",
"h  c #755200",
"j  c #7A5600",
"k  c #705E00",
"l  c #7C5A00",
"z  c #766100",
"x  c #7C6400",
"c  c #7F6900",
"v  c #815E00",
"b  c #846200",
"n  c #896600",
"m  c #826C00",
"M  c #8D6A00",
"N  c #856D0F",
"B  c #916E00",
"V  c #8D7200",
"C  c #957200",
"Z  c #997600",
"A  c #9D7A00",
"S  c #93760E",
"D  c #A17E00",
"F  c #9D8100",
"G  c #A58200",
"H  c #A98600",
"J  c #AC8A00",
"K  c #B18E00",
"L  c #AD9100",
"P  c #B59200",
"I  c #B99600",
"U  c #BD9A00",
"Y  c #BE9E0B",
"T  c #BC9C1D",
"R  c #C19E00",
"E  c #C5A200",
"W  c #C9A600",
"Q  c #CDAA00",
"!  c #C6A50D",
"~  c #CFAE0A",
"^  c #D1AE00",
"/  c #D5B200",
"(  c #D9B600",
")  c #DDBA00",
"_  c #D6B508",
"`  c #CAAC1D",
"'  c #D2B211",
"]  c #D8B715",
"[  c #E0BE01",
"{  c #CDAF22",
"}  c #E3C005",
"|  c #E5C40C",
" . c #E6C613",
".. c #E7C914",
"X. c #E8C71A",
"o. c #E7C818",
"O. c #E8CA1C",
"+. c #DDC12F",
"@. c #DDC234",
"#. c #DEC43E",
"$. c #E9CC23",
"%. c #EBCE2B",
"&. c #ECD02F",
"*. c #E6CB38",
"=. c #ECD135",
"-. c #EDD239",
";. c #EED442",
":. c #EFD74A",
">. c #F0D74B",
",. c #EBD454",
"<. c #F1D953",
"1. c #F2DB5C",
"2. c #F2DD63",
"3. c #F3DE6A",
"4. c #F4E16F",
"5. c #F5E37B",
"6. c #F5E481",
"7. c #F7E78B",
"8. c #F7E893",
"9. c #F7EA98",
"0. c #F8EB9B",
"q. c #F9EDA4",
"w. c #F9EEAB",
"e. c #FAEFB1",
"r. c #FAF0B2",
"t. c #FBF2BB",
"y. c #FBF3C2",
"u. c #FCF6CE",
"i. c #FCF6D1",
"p. c #FDF7D8",
"a. c #FDF8DC",
"s. c #FDF9E3",
"d. c #FEFBED",
"f. c #FEFCF4",
"g. c #FEFEFB",
/* pixels */
"                                                                                            ",
"                                  . . . . . . . . . . . . . .                               ",
"                            . . . > 6 q i a a ; X r i u 9 3 > O . .                         ",
"                            O O @ 0 h l B C C 3 X b M M j p w % O o                         ",
"                      . . . 0 s l C Z Z Z C C 5 X n B B M n n d i 4 + . .                   ",
"                    o > 5 8 b n C Z A A Z Z A 5 X n C B B B M v j d 9 > = + .               ",
"                  X O p v M D D A D A A A A A 7 X n Z C C B B M M n j p 0 * .               ",
"                . 3 d n C D G G G G G G G D G 7 X V A Z C C B B B M M v p 0 2 X .           ",
"              O = i b Z A H H G H H G G G G H 7 X C A A A Z C C B B M n j p 0 % +           ",
"            . # h n C J J J J J H J H H H H H 8 X C D F A Z Z C C B B M M j p 0 = .         ",
"            . # M A J J J K P J K K J K J J J 8 X Z G F D A A Z Z C C B M n v p 3 .         ",
"            # < A H K K K K P J K K K K K K K 8 X A H G D D A A A C C B B M n h 9 O         ",
"          . t M K P P P P P I I I P P P P K P 8 o A H H H G D A A A C B B B M n d 4 O .     ",
"          . f A P I I I U U U U I I U I P I I e X G K J H H G D D A A C B B M M j i O .     ",
"          @ x H I U U I J G F J I U U U U U U e X G K J J H H G D D A Z C C B B v d % X     ",
"      . * b J U U R U F e . . 1 A I R R U U E e o G P P K J H H G D A A A C B B M n w > .   ",
"      . ; C P U E E L e & . . # 7 J W E R R E e o L I P J J J J H D D D A C C B B M p 3 .   ",
"      . , L U E E E L X . . . . . F W E E E E y X L U I P K J J H G G D A A C B B M j 0 .   ",
"      . 1 E E E E Q P X . . . . . F Q Q W E W y X L U U P P K K J H G D D Z Z C C M M i .   ",
"      . 1 W E E W Q U 8 $ . . # 7 L / Q Q W Q y X L U U I P P K K H H G D A A C C B B p .   ",
"      . 1 Q Q Q ^ ^ Q L y . . 1 L W / ^ ^ ^ ^ y X I R R U I P K K J H G D D A Z C B B a .   ",
"      . 1 Q Q ^ ^ / / ^ R L L U ^ / / / / ^ / u o I E R U U I P K K H H D D D C C C B a .   ",
"      . 1 / ^ / / / / ( ) ) ) ) ) ( ( / / / / u o I E E R U U P K K H H D D A A Z C B f .   ",
"      . 1 ^ / / ( / ) [ [ [ [ [ [ ) ) ) ( / ) u X U W E R R U P P K K K G G D A Z C C a .   ",
"      . 7 / / ( ) ) ) } } | | | | } [ [ ) ( ) u X U Q E E R U I P K K K G G D A Z C C f .   ",
"      . 5 / ( ( ) ) } |  .O.O.O.O.| | [ ) ) ) k - E Q E E E U U U K K H H G D D A Z C a .   ",
"      . 1 U ^ ( ) } | $.=.:.<.<.:.&.O.| } ) ) / ^ ^ Q Q E E R U U K K J H H D D A C b t .   ",
"      . < P / ) } ..$.:.4.5.7.7.5.<.;.O.| [ ) ( / / ^ Q W E R U U P K K H H G D A Z h 9 .   ",
"      . , A W [ } O.-.4.8.r.y.t.r.5.1.=. .} ) ( ( / ^ Q W W R U U K K K H H G D A Z p 3 .   ",
"          @ F / | =.<.0.y.s.f.d.s.r.7.:.$.| [ ) ( / ^ Q W E R R R P K K J H G D C v & X     ",
"          . m Q  .-.1.r.i.f.g.g.d.t.9.<.%.| [ ) ( / ^ ^ W E E U U P K J J H H D B h O .     ",
"          . x Y  .;.3.r.a.g.g.g.g.u.q.1.%. .[ ) ( / ^ ^ W W R R U P P K J H G D n i O .     ",
"            & 8 ' *.1.q.i.f.f.g.d.t.9.<.%.| ) ) ( / / Q W W R R U P P K J H G B i O         ",
"            . - ! @.,.8.t.a.s.s.p.w.6.;.$.| [ ) ( / ^ Q W W R U I I K K J G A b q .         ",
"            . & P { @.3.7.w.y.t.w.5.1.%. .} ) ) ( / ^ Q W E R U U P K K J Z n h 3 .         ",
"                , N T #.,.4.5.5.3.:.=.o.} ) ) ( / / Q Q W E R U I P K J A M h : #           ",
"                . r S { @.;.<.:.;.&.O.| [ ) ( ( / ^ Q W W E R U I P K H B h w o .           ",
"                  . # L ! ] X.....| } [ ) ) ( / / Q Q W E R U U P P D C l 3 .               ",
"                    @ r u g Y ~ _ ) ) ) ) ( / / ^ Q W W E R U K G A a 7 < &                 ",
"                      . . . V J U / ) ( ( ( / ^ Q Q W E R U I A B j ; . .                   ",
"                            @ @ # V I W ^ ( / / ^ Q Q E J G S : O o                         ",
"                            . . . y g z m m m m x x x x f i q $ . .                         ",
"                                  . . . . . . . . . . . . . .                               ",
"                                                                                            "
};
