/* XPM */
static char *result[] = {
/* columns rows colors chars-per-pixel */
"44 46 135 2 ",
"   c #000000",
".  c #090700",
"X  c #0B0900",
"o  c #130D00",
"O  c #1A0F00",
"+  c #161100",
"@  c #1B1400",
"#  c #1F1A00",
"$  c #251700",
"%  c #241B00",
"&  c #2C1B00",
"*  c #321C00",
"=  c #272103",
"-  c #2B2100",
";  c #312400",
":  c #392300",
">  c #352A00",
",  c #3C2C00",
"<  c #3E3300",
"1  c #422400",
"2  c #442D00",
"3  c #4F2D00",
"4  c #423500",
"5  c #4D3400",
"6  c #453900",
"7  c #4C3C00",
"8  c #543500",
"9  c #583700",
"0  c #543B00",
"q  c #5C3C00",
"w  c #4F4100",
"e  c #544401",
"r  c #5B4400",
"t  c #574800",
"y  c #5C4C01",
"u  c #624300",
"i  c #6A4700",
"p  c #644C00",
"a  c #6B4B00",
"s  c #714F00",
"d  c #6B5300",
"f  c #6A5909",
"g  c #755200",
"h  c #7A5600",
"j  c #705E00",
"k  c #7C5A00",
"l  c #766100",
"z  c #7C6400",
"x  c #7F6900",
"c  c #815E00",
"v  c #846200",
"b  c #896600",
"n  c #826C00",
"m  c #8D6A00",
"M  c #856D0F",
"N  c #916E00",
"B  c #8D7200",
"V  c #957200",
"C  c #997600",
"Z  c #9D7A00",
"A  c #93760E",
"S  c #A17E00",
"D  c #9D8100",
"F  c #A58200",
"G  c #A98600",
"H  c #AC8A00",
"J  c #B18E00",
"K  c #AD9100",
"L  c #B59200",
"P  c #B99600",
"I  c #BD9A00",
"U  c #BE9E0B",
"Y  c #BC9C1D",
"T  c #C19E00",
"R  c #C5A200",
"E  c #C9A600",
"W  c #CDAA00",
"Q  c #C6A50D",
"!  c #CFAE0A",
"~  c #D1AE00",
"^  c #D5B200",
"/  c #D9B600",
"(  c #DDBA00",
")  c #D6B508",
"_  c #CAAC1D",
"`  c #D2B211",
"'  c #D8B715",
"]  c #E0BE01",
"[  c #CDAF22",
"{  c #E3C005",
"}  c #E5C40C",
"|  c #E6C613",
" . c #E7C914",
".. c #E8C71A",
"X. c #E7C818",
"o. c #E8CA1C",
"O. c #DDC12F",
"+. c #DDC234",
"@. c #DEC43E",
"#. c #E9CC23",
"$. c #EBCE2B",
"%. c #ECD02F",
"&. c #E6CB38",
"*. c #ECD135",
"=. c #EDD239",
"-. c #EED442",
";. c #EFD74A",
":. c #F0D74B",
">. c #EBD454",
",. c #F1D953",
"<. c #F2DB5C",
"1. c #F2DD63",
"2. c #F3DE6A",
"3. c #F4E16F",
"4. c #F5E37B",
"5. c #F5E481",
"6. c #F7E78B",
"7. c #F7E893",
"8. c #F7EA98",
"9. c #F8EB9B",
"0. c #F9EDA4",
"q. c #F9EEAB",
"w. c #FAEFB1",
"e. c #FAF0B2",
"r. c #FBF2BB",
"t. c #FBF3C2",
"y. c #FCF6CE",
"u. c #FCF6D1",
"i. c #FDF7D8",
"p. c #FDF8DC",
"a. c #FDF9E3",
"s. c #FEFBED",
"d. c #FEFCF4",
"f. c #FEFEFB",
"g. c None",
/* pixels */
"g.g.g.g.g.g.g.g.g.g.g.g.g.g.g.g.g.g.g.g.g.g.g.g.g.g.g.g.g.g.g.g.g.g.g.g.g.g.g.g.g.g.g.g.",
"g.g.g.g.g.g.g.g.g.g.g.g.g.g.g.                            g.g.g.g.g.g.g.g.g.g.g.g.g.g.g.",
"g.g.g.g.g.g.g.g.g.g.g.g.    . * 2 0 p a a p a d d a r 5 1 .     g.g.g.g.g.g.g.g.g.g.g.g.",
"g.g.g.g.g.g.g.g.g.g.g.g.o o $ q a h b m N N N N V V v g a % @ o g.g.g.g.g.g.g.g.g.g.g.g.",
"g.g.g.g.g.g.g.g.g.    o 3 u s b b N N N N V V V V V C C C z g u o     g.g.g.g.g.g.g.g.g.",
"g.g.g.g.g.g.g.  O * 1 0 s h c N N N N N V C C C Z C Z Z Z V N b r 0 2 $   g.g.g.g.g.g.g.",
"g.g.g.g.g.g.g.. $ 9 i h b m N N N N C C C C C C Z Z S S S S S S V v g ; . g.g.g.g.g.g.g.",
"g.g.g.g.g.    1 9 i c b m N N N N C C C Z Z S S S S F S F F F F F Z b g q   g.g.g.g.g.g.",
"g.g.g.g.g.O & 9 i k b m N N N N C C S S S S S S F F F G G G G G G F C b h , $ g.g.g.g.g.",
"g.g.g.g.  & 9 i h b b N N N C Z C C S S S S G S G G G G H H H G H H H Z N c ,   g.g.g.g.",
"g.g.g.g.  : a c b N N N N C Z Z S S S G G H G H J G H J H J J J J H J H F V 6   g.g.g.g.",
"g.g.g.g.O 8 h b b N N C C C Z S S S S G G G H H J J J J J L J J L J J J J S a - g.g.g.g.",
"g.g.  X 3 s b N N N N C Z Z S S S S H H H J J J J J L J L L L P L P L P L L Z k X   g.g.",
"g.g.  o u h b N N V C C Z S S F G G H H J J J L P L I I I I I I I I P P P L G m o   g.g.",
"g.g.o $ s c N N V V C Z Z S F G G G J J J L L L I I I I I T T T I I I I I P J Z ; # g.g.",
"g.  * q b N m N C C Z Z S S G G J J J J L P I P I T T T T T T T T R R T T I I P N 0   g.",
"g.  2 a b N m V C C Z S F G H H J J L P P I I I T R R R R R R E R E R R R T T I S p   g.",
"g.  0 k m m V C C Z S F F G H H J J L P I I I R R R R R W E E W E W E E R R R T J d   g.",
"g.  r m N V V C Z Z S F G H H L L L T P I R R R R E W W W W W W W W W W W E R R R z   g.",
"g.  u N m V V Z Z S F G H H K L L L T T R R R E W W W ~ W ~ ^ ^ ~ ~ ~ W W W W E W z   g.",
"g.  r v v b m B V C C Z Z F F G H H J L L L I I I R ^ ^ ^ ^ ^ ^ ^ ^ ^ ^ ~ ~ W W W z   g.",
"g.    . . . X . . . . . . . . . X X . X X X X X . = W ^ ^ / / / / / ^ ^ ^ ^ ~ W ~ x   g.",
"g.  - 4 2 4 4 6 6 7 7 7 7 e 7 r 0 e t t t y y y y j ^ / / ( ( ( ( ( / / / ^ ^ ~ ^ n   g.",
"g.  p V C Z S F F H H K L P I T R E E W W ^ ^ / ( ( ( ( ( { ( { ] { ( ( / / ^ ^ ^ n   g.",
"g.  p C V C Z S F G H H J P P I T T E E ~ ~ / / / ( ] ] { } }  .} } { ] ( ( / / / n   g.",
"g.  u N C C S F F G H J J P I I T T E W ~ ^ ^ / ( ] ] }  .#.$.$.#.#.| { { ( / / ^ n   g.",
"g.  0 c C C Z S F G H L L P I T T W W W ~ ^ / / ( ] } o.$.;.,.<.,.-.$.X.} ] ( / R l   g.",
"g.  4 s C Z S F G H H H L I I T R W W ~ ^ ^ / / ] } o.-.<.6.8.0.8.5.<.*.o.{ ] / P d   g.",
"g.  : q N Z Z F G G H L L P P P K D D L E ^ / ] { } *.,.5.w.r.y.r.q.4.;.%.} ( ^ B t   g.",
"g.g.  + k N S F F H H L P I L D <     w K ~ / ] } o.-.4.w.a.s.f.s.i.q.3.-.o.) I @   g.g.",
"g.g.  o a b S F G H H L L I K < @     @ 4 I ( ( } #.,.6.r.s.f.f.d.a.r.4.;. .! H +   g.g.",
"g.g.  o 9 c S F G H K L L I F             K ] ( } #.,.7.t.d.f.f.f.s.r.4.:.o.U B o   g.g.",
"g.g.g.g.  0 m F G G J L L I F             K ] ] } X.;.5.e.a.d.f.d.p.q.3.;.' f   g.g.g.g.",
"g.g.g.g.  2 c V S H H J L I H w #     # e T / ( {  .=.1.7.t.u.p.y.r.7.>.+._ y   g.g.g.g.",
"g.g.g.g.  , a v V G J J L I L D w .   7 K ~ / ] ] } #.;.3.8.q.e.q.7.1.@.[ K e   g.g.g.g.",
"g.g.g.g.g.X o a v V H J L P I I L K L T W ^ / / ] ]  .#.=.>.1.2.1.;.+.Y A @ o g.g.g.g.g.",
"g.g.g.g.g.g.. , u b S H L P I T R R W W ~ ^ ^ / / ] {  .o.*.=.-.&.[ [ M e   g.g.g.g.g.g.",
"g.g.g.g.g.g.g.  & h b Z H L P I I R R W W ^ ^ / / ] ] ] { }  .X.' Q L ,   g.g.g.g.g.g.g.",
"g.g.g.g.g.g.g.g.o @ @ , m Z H I I R R W W W ^ ^ / / / ] ] ~ Q I w = = g.g.g.g.g.g.g.g.g.",
"g.g.g.g.g.g.g.g.g.    @ r a z H L I R R W W W ~ ^ / ^ ~ W D B z #     g.g.g.g.g.g.g.g.g.",
"g.g.g.g.g.g.g.g.g.g.g.g.    o v C G R R W W ~ ^ ^ ^ I L Z o     g.g.g.g.g.g.g.g.g.g.g.g.",
"g.g.g.g.g.g.g.g.g.g.g.g.g.g.g.- > > < < < < 4 4 4 4 < , > g.g.g.g.g.g.g.g.g.g.g.g.g.g.g.",
"g.g.g.g.g.g.g.g.g.g.g.g.g.g.g.                            g.g.g.g.g.g.g.g.g.g.g.g.g.g.g.",
"g.g.g.g.g.g.g.g.g.g.g.g.g.g.g.g.g.g.g.g.g.g.g.g.g.g.g.g.g.g.g.g.g.g.g.g.g.g.g.g.g.g.g.g.",
"g.g.g.g.g.g.g.g.g.g.g.g.g.g.g.g.g.g.g.g.g.g.g.g.g.g.g.g.g.g.g.g.g.g.g.g.g.g.g.g.g.g.g.g.",
"g.g.g.g.g.g.g.g.g.g.g.g.g.g.g.g.g.g.g.g.g.g.g.g.g.g.g.g.g.g.g.g.g.g.g.g.g.g.g.g.g.g.g.g."
};
