/* XPM */
static char *_1f6cf47b3ec44ca966bea61b6cfd480lksiYlAw0RMScrqz[] = {
/* columns rows colors chars-per-pixel */
"46 43 120 2 ",
"   c None",
".  c #000000",
"X  c #090600",
"o  c #0C0900",
"O  c #140D00",
"+  c #161100",
"@  c #1B1500",
"#  c #1F1901",
"$  c #241400",
"%  c #231C00",
"&  c #2B1D00",
"*  c #351F00",
"=  c #2D2301",
"-  c #322400",
";  c #3C2400",
":  c #352B00",
">  c #3B2C00",
",  c #3D3200",
"<  c #452700",
"1  c #412C00",
"2  c #4B2900",
"3  c #423500",
"4  c #4B3300",
"5  c #443800",
"6  c #553300",
"7  c #5C3700",
"8  c #553B00",
"9  c #5B3C00",
"0  c #623F00",
"q  c #524300",
"w  c #5E4300",
"e  c #5C4C00",
"r  c #614600",
"t  c #694700",
"y  c #654B00",
"u  c #6B4C00",
"i  c #714E00",
"p  c #655200",
"a  c #6B5400",
"s  c #6D5900",
"d  c #6A550A",
"f  c #745300",
"g  c #795600",
"h  c #745B00",
"j  c #7E5B00",
"k  c #776100",
"l  c #7C6600",
"z  c #815D00",
"x  c #846300",
"c  c #896600",
"v  c #846B00",
"b  c #8D6A00",
"n  c #916E00",
"m  c #8D7200",
"M  c #957200",
"N  c #997600",
"B  c #937A00",
"V  c #9D7A00",
"C  c #A17E00",
"Z  c #9F8300",
"A  c #A58200",
"S  c #A98600",
"D  c #A68900",
"F  c #AC8A00",
"G  c #B18E00",
"H  c #B59200",
"J  c #B99600",
"K  c #BD9A00",
"L  c #BC9B0A",
"P  c #B19014",
"I  c #C19E00",
"U  c #C5A200",
"Y  c #C9A600",
"T  c #CDAA00",
"R  c #D1AE00",
"E  c #D5B200",
"W  c #D9B600",
"Q  c #DDBA00",
"!  c #CDAD10",
"~  c #C1A21A",
"^  c #E1BE01",
"/  c #D4B727",
"(  c #D7BA2F",
")  c #D7BA30",
"_  c #E3C105",
"`  c #E4C40C",
"'  c #E6C512",
"]  c #E7C817",
"[  c #E7C818",
"{  c #E8C91B",
"}  c #E9CC24",
"|  c #EBCE2B",
" . c #E4C936",
".. c #ECCF31",
"X. c #ECD135",
"o. c #EDD23C",
"O. c #E6CD44",
"+. c #EED440",
"@. c #F0D84F",
"#. c #F1D953",
"$. c #F2DB5A",
"%. c #F2DC63",
"&. c #F4DF6C",
"*. c #F4E172",
"=. c #F5E37B",
"-. c #F5E482",
";. c #F7E78E",
":. c #F7E993",
">. c #F8EB9E",
",. c #F9EDA3",
"<. c #F9EFAC",
"1. c #FAF0B3",
"2. c #FAF2BB",
"3. c #FBF3C4",
"4. c #FCF5CA",
"5. c #FCF7D4",
"6. c #FCF7D9",
"7. c #FEFCEC",
"8. c #FEFDF5",
"9. c #FEFEFA",
/* pixels */
"                                                            .                               ",
"                                  . .                       .                               ",
"                            . . . . .                       . . . .                         ",
"                            * - > o .                       . % - $ O                       ",
"                      . . X 0 g x @ .                       . 8 i 6 $ . . X                 ",
"                  . X 8 y f M N N @ .                       . r c z t 7 < $ .               ",
"                  @ * f x M C C C 3 %                     + % f n c z i 0 * O               ",
"                . 4 f c N S A A A b e .                 . % h b n c c z i 0 2 X .           ",
"            . O 8 f b C A F S S D A h .                 . = m M n n n c z i 0 * $ .         ",
"            . @ j b N F F F F F F H l .                 . - V M N n n b c z i 0 ; .         ",
"            . # n A F G G G G H G G l .                 . = C N N n M n n c x i 1 .         ",
"          . > w A F H H H H H H H H V q %             . 3 u C V V N N n n n c z r & o       ",
"          . r n H H H J H J H H J J F M = .           X s m C C C N N n n n n c i 6 O .     ",
"          . f A J J K K I I U K K K J J > .           . m S A A C C V N N n n c z t O .     ",
"        % > m G J K J F b p p v F J K U , .           X M F S A C C V V N n n n x g ; @     ",
"      . & b G K I I J B 5 . . : B H I U 3 .           X M G S S A C V V V N n n n c 0 ; .   ",
"      . = Z H I I U G % o . . X @ D Y U Z p X     . : k F H F F S C C C C N M n n b i 6 .   ",
"      . : H K U U Y H X . . . . . Z T Y H m X     . 5 Z F H G F S S A C C N N n n b z 8 .   ",
"      . , Y U Y Y T J X . . . . . Z T T T D o     . q K J H G G F S A C C N N M n n n y .   ",
"      . , Y Y Y T T U l : . . = l K E T R D X     . q U J J H G G F S A C C V N M n n y .   ",
"      . , T T T T R T H s = # e H T R R R H % @   + p U K J J G G G S S C C V N M n n u .   ",
"      . 5 T T R W E E W W W E W W W W E E T Z 5 X v F U I J J H G G S S C C V N N M n p .   ",
"      . 5 R R E E W W Q Q Q Q Q Q Q Q W W R U q X D K U I K K J G G G S A A C V N n n u .   ",
"      . , R E E W W Q Q Q _ ^ ^ ^ ^ Q Q W W W e o K Y Y I I J J H G G S S A C V N M N u .   ",
"      . 5 W E W Q Q ^ ^ ` ` ' ' ' _ ^ ^ Q Q Q q X K T Y U I K J J G G S S A C C N N M a .   ",
"      . 5 T W W Q ^ _ ] } | X.X.| { ' _ ^ Q Q Z p Y T Y U U K K J G G G S A C C V N b r .   ",
"      . , K E W Q ` ' | +.#.$.$.@.X.} ` _ ^ W Q Q R T T U U U K J J G G S A A C V N z 9 .   ",
"      . : F E Q ^ [ ..$.=.>.<.,.>.&.#.} ` ^ Q Q W R R T Y Y K K J H G F F S C C V N f 4 .   ",
"      . = h K Q _ } +.=.,.2.5.4.2.;.&.X.] _ Q Q W E R T Y U I K J J G G F S A C N n 8 - .   ",
"          . B E ' X.$.,.4.7.9.8.7.1.:.@.} ` ^ Q W E R R Y Y U K J J J G S S A C M j @ .     ",
"          . v U ' o.%.1.5.9.9.9.8.3.>.$.| ' ^ Q W E R T Y Y U K J J G G F S A C n u + .     ",
"          . d A ' +.%.1.6.9.9.9.8.4.>.$.| ' ^ Q W E R T Y Y U K K J G G F S D V z 6 O .     ",
"            . = !  .$.,.4.7.9.8.7.2.:.@.| ` _ Q W E E T Y Y I I J H G G S S A n 8 .         ",
"            . = L ( O.-.<.4.5.5.4.:.*.X.{ _ Q Q W E T T Y U I K K J G G S C N z 4 .         ",
"            . = Z ~ ) %.=.,.1.<.>.*.#.| ` _ Q Q W E T T Y U I K J J G G S N x u > .         ",
"                X d P ) O.$.%.%.#.o.} ' _ ^ W W W E T T Y U I K J H H F N x i O X           ",
"                . 3 d ~ /  .o.o.X.} ' _ ^ Q W W E T T Y U U I K J H S C c r > o             ",
"                  . O A L ! ' ' ' _ _ Q Q W W E E T T Y U I I J J G V b f > .               ",
"                      # % = D I E Q Q Q W W E R T T Y U U I K F C b 3 + O O                 ",
"                      . . X s v m U R R E W E R T T Y U J H F l u w & . .                   ",
"                            . . . v G K T E E R T ! U U F V c % . .                         ",
"                                  = : > , , , , , , , > : = %                               ",
"                                  . . . . . . . . . . . . . .                               "
};
