/* XPM */
static char *_7408c2a55094c5df0e1b0c6dd5520a3n6SuHV8EdTJDcfaY[] = {
/* columns rows colors chars-per-pixel */
"44 46 151 2 ",
"   c None",
".  c #000000",
"X  c #090700",
"o  c #0B0900",
"O  c #130D00",
"+  c #190E00",
"@  c #161100",
"#  c #1B1300",
"$  c #1F1A00",
"%  c #251700",
"&  c #241B00",
"*  c #2C1B00",
"=  c #321C00",
"-  c #272103",
";  c #2B2100",
":  c #312400",
">  c #392300",
",  c #352A00",
"<  c #3C2C00",
"1  c #3E3300",
"2  c #422400",
"3  c #442D00",
"4  c #4F2D00",
"5  c #423500",
"6  c #4D3400",
"7  c #453900",
"8  c #4C3C00",
"9  c #543500",
"0  c #583700",
"q  c #543B00",
"w  c #5C3C00",
"e  c #4F4100",
"r  c #544401",
"t  c #5B4400",
"y  c #574800",
"u  c #5C4C01",
"i  c #624300",
"p  c #6A4700",
"a  c #644C00",
"s  c #6B4B00",
"d  c #714F00",
"f  c #6B5300",
"g  c #6A5909",
"h  c #755200",
"j  c #7A5600",
"k  c #705E00",
"l  c #7C5A00",
"z  c #766100",
"x  c #7C6400",
"c  c #7F6900",
"v  c #815E00",
"b  c #846200",
"n  c #896600",
"m  c #826C00",
"M  c #8D6A00",
"N  c #856D0F",
"B  c #916E00",
"V  c #8D7200",
"C  c #957200",
"Z  c #997600",
"A  c #9D7A00",
"S  c #93760E",
"D  c #A17E00",
"F  c #9D8100",
"G  c #A58200",
"H  c #A98600",
"J  c #AC8A00",
"K  c #B18E00",
"L  c #AD9100",
"P  c #B59200",
"I  c #B99600",
"U  c #BD9A00",
"Y  c #BE9E0B",
"T  c #BC9C1D",
"R  c #C19E00",
"E  c #C5A200",
"W  c #C9A600",
"Q  c #CDAA00",
"!  c #C6A50D",
"~  c #CFAE0A",
"^  c #D1AE00",
"/  c #D5B200",
"(  c #D9B600",
")  c #DDBA00",
"_  c #D6B508",
"`  c #CAAC1D",
"'  c #D2B211",
"]  c #D8B715",
"[  c #E0BE01",
"{  c #CDAF22",
"}  c #E3C005",
"|  c #E5C40C",
" . c #E6C613",
".. c #E7C914",
"X. c #E8C71A",
"o. c #E7C818",
"O. c #E8CA1C",
"+. c #DDC12F",
"@. c #DDC234",
"#. c #DEC43E",
"$. c #E9CC23",
"%. c #EBCE2B",
"&. c #ECD02F",
"*. c #E6CB38",
"=. c #ECD135",
"-. c #EDD239",
";. c #EED442",
":. c #EFD74A",
">. c #F0D74B",
",. c #EBD454",
"<. c #F1D953",
"1. c #F2DB5C",
"2. c #F2DD63",
"3. c #F3DE6A",
"4. c #F4E16F",
"5. c #F5E37B",
"6. c #F5E481",
"7. c #F7E78B",
"8. c #F7E893",
"9. c #F7EA98",
"0. c #F8EB9B",
"q. c #F9EDA4",
"w. c #F9EEAB",
"e. c #FAEFB1",
"r. c #FAF0B2",
"t. c #FBF3BF",
"y. c #FBF2BD",
"u. c #FAF2BA",
"i. c #FBF3C2",
"p. c #FBF4C3",
"a. c #FBF3C1",
"s. c #FCF6CF",
"d. c #FCF6CD",
"f. c #FCF6D1",
"g. c #FDF7D8",
"h. c #FDF8DC",
"j. c #FDF9E4",
"k. c #FEFAE5",
"l. c #FDF9E1",
"z. c #FDFAE9",
"x. c #FEFBED",
"c. c #FEFCEE",
"v. c #FEFCF1",
"b. c #FEFCF2",
"n. c #FEFDF7",
"m. c #FEFDFA",
"M. c #FEFDFB",
"N. c #FEFEFB",
"B. c #FFFEFD",
"V. c white",
"C. c #FEFDF8",
/* pixels */
"                                                                                        ",
"                                                                                        ",
"                                                                                        ",
"                              . . . . . . . . . . . . . .                               ",
"                              , < 1 5 5 5 1 1 1 5 5 , : ;                               ",
"                        . . @ A P U / / / ^ Q Q E R H Z b @ . .                         ",
"                  . . $ x V A Q / / / / / Q Q W E E U K H x f t % . .                   ",
"                  & - 7 Y W _ ) ) ) ( ( / ^ ^ Q W E R R R H A M 1 # @ O                 ",
"              . 1 K ! `  . .| [ [ [ ( ( ( / / Q Q W E E U U I J A M j ; .               ",
"            . r N { *.*.;.-.=.O...} [ [ ( / / Q Q W E E U U I P H A n i 3 .             ",
"          @ # S { { :.2.3.2.<.-.$. .[ [ ) ( / Q U I L I U U I P P H C b s O o           ",
"        . r L { #.2.8.w.u.w.0.3.:.$.| [ [ ( Q L 8 . . e F I I P K J H Z n s > .         ",
"        . u ! @.,.8.u.s.h.s.i.8.2.-...} ) ) R y $ . . & e J U P K K H D C v 5 .         ",
"        . g ] ;.4.e.h.b.M.b.j.e.6.:.O.| [ [ L . . . . . . F U I K K J H G M 9 .         ",
"    . O C Y O.>.6.y.z.C.M.M.b.i.8.<.O. .[ ) L . . . . . . F U P K K J H G D x 0 O .     ",
"    . @ J ~ o.>.5.u.j.C.M.M.x.y.7.<.O.| [ ) U 1 # . . # 1 H U I P K H G G D n s O .     ",
"    . @ U _ ..;.3.w.g.c.C.c.l.r.5.:.O.| [ ( / L 1 . . e F P U P K K H H G D C l @ .     ",
"  . y V ( ) | &.:.5.w.y.d.a.e.5.<.&. .[ [ ( / W P F F L P U U P K K H H G D Z B w > .   ",
"  . f U ) ) } O.=.1.6.9.q.9.7.1.-.O.} [ [ ( / / / Q Q E E U U P K K H H D D A Z d 5 .   ",
"  . z E ( ) [ | o.%.;.<.1.<.>.&.O. .[ [ ( / / ^ Q Q E R R U I L K K H H D D Z Z v q .   ",
"  . m / ( ) ) ) |  .O.%.%.%.$. .| } [ ( ( / / Q W W E R U I I P K H H G D A A Z B i .   ",
"  . m ( ( ( ) ) ) } | |  .| | } [ ) [ ( / / / ^ Q W E R U U I L K H H D D A Z C C a .   ",
"  . m / / / ( ( ) ) [ [ [ [ ) ) ) ( [ ( ( ( / Q Q W E E R U I P K K J H G D A Z C s .   ",
"  . m / ^ / / ( ( ) ) ) ) ) ) ) ( / k u u u u y y r r r r e e 8 8 8 8 7 5 5 5 1 5 * .   ",
"  . c ^ Q ^ / / ( ( ( ( ( ( ( ( / ^ - X o o o o o X o o X o X X X o X . o . X X X . .   ",
"  . x Q Q Q ^ ^ Q / / / / / / / / ^ R U I U I P L P J H H F G F A Z Z C C V M b b t .   ",
"  . x Q W Q Q Q Q / Q / Q ^ / Q ^ Q Q Q E E E R U U I I P P J H G G D A A Z B B B a .   ",
"  . x E E E W Q Q Q Q Q Q / Q Q Q Q W Q E E R U U U I P P J J H G D D D Z C C M M t .   ",
"  . f K U E E E E Q W Q Q W W W E E E E R R U U I P P P J J H H D D A Z C B M M j 9 .   ",
"  . a D U R E E E E E E E E W E E E E R R U U I P P K K H H H G D D Z C C B B M s 3 .   ",
"  . q C I U U R R E E E E R E R R U U U U I I P P K J J H G G G A A Z C C B M n w = .   ",
"    # , A K I U U U U U R U R U U U U U I P P K K K J H H G G A A Z C C B M v d * O     ",
"    . o M H I I I U I U U U I U I I I I P K K K H J H H D D D D Z C C B B M l i o .     ",
"    . O j Z P P P P I I P I P P P P P K K K K K H H G G D D D C C C B B M n d 4 o .     ",
"        * f D K K K P K K K K K K K K K J K H H H G D D D Z Z Z C B B B n j 9 +         ",
"        . 5 C G J K J K K K K K K J J J H H H G G D D D D Z Z C B B M n b s > .         ",
"        . , v B Z J J H J H J J J H H H G G G G D D D Z C C B B B B M j p 9 * .         ",
"          * < j M A G H H H H H G H G G G D D A D Z Z Z C C B M M n j p 0 = #           ",
"            . t h M A G G G G G G D D D D A A A Z Z C C C B B M n v s 0 2 . .           ",
"              X : d n B D D D D A D A A A A Z Z C C C B B B M n h p 0 % X               ",
"              . % 3 8 i n B C A A A Z Z Z Z Z C B B B B B v l d 6 3 = + .               ",
"                  . . O i h v Z Z Z Z C C C C B B M M M n d i 4 O . .                   ",
"                        O @ & p j b B C C C B M B M j s 0 % O O                         ",
"                        . . X 3 6 t s f s a a f s i q 4 = X . .                         ",
"                              . . . . . . . . . . . . . .                               ",
"                                                                                        "
};
