/* XPM */
static char *_80a598aa1c04b47d2f2b0da8643b991nrMgODKec12K6AAB[] = {
/* columns rows colors chars-per-pixel */
"44 46 137 2 ",
"   c None",
".  c black",
"X  c #020100",
"o  c #030200",
"O  c #0B0500",
"+  c #0E0900",
"@  c #120600",
"#  c #140B00",
"$  c #191300",
"%  c #1F1400",
"&  c #201000",
"*  c #281400",
"=  c #2E1500",
"-  c #221B00",
";  c #271B00",
":  c #2D1F00",
">  c #361E00",
",  c #322500",
"<  c #392800",
"1  c #3C3000",
"2  c #401F00",
"3  c #422900",
"4  c #4E2900",
"5  c #403200",
"6  c #433600",
"7  c #4C3100",
"8  c #4B3900",
"9  c #4E3F00",
"0  c #533200",
"q  c #573400",
"w  c #533800",
"e  c #5C3900",
"r  c #534200",
"t  c #564600",
"y  c #5B4200",
"u  c #5C4B00",
"i  c #624100",
"p  c #6A4500",
"a  c #644B00",
"s  c #6B4A00",
"d  c #724E00",
"f  c #6B5200",
"g  c #6A5802",
"h  c #765100",
"j  c #7B5500",
"k  c #705E00",
"l  c #7D5A00",
"z  c #776100",
"x  c #7D6400",
"c  c #825E00",
"v  c #856200",
"b  c #8A6600",
"n  c #806900",
"m  c #836C00",
"M  c #866D06",
"N  c #8E6A00",
"B  c #926E00",
"V  c #8E7300",
"C  c #967300",
"Z  c #947706",
"A  c #9A7700",
"S  c #9E7B00",
"D  c #A27F00",
"F  c #9E8200",
"G  c #A68300",
"H  c #AA8700",
"J  c #AD8B00",
"K  c #B28F00",
"L  c #AE9200",
"P  c #B69300",
"I  c #BA9700",
"U  c #BE9B00",
"Y  c #BF9F03",
"T  c #C29F00",
"R  c #C6A300",
"E  c #C7A605",
"W  c #CAA700",
"Q  c #CEAB00",
"!  c #D2AF00",
"~  c #D0AF03",
"^  c #D6B300",
"/  c #D7B602",
"(  c #DAB700",
")  c #DEBB00",
"_  c #D9B80D",
"`  c #CBAD17",
"'  c #CEB01C",
"]  c #E1BF00",
"[  c #E4C101",
"{  c #E6C504",
"}  c #E7C70B",
"|  c #E8CA0C",
" . c #E8C911",
".. c #E9CB16",
"X. c #EACD1E",
"o. c #DEC331",
"O. c #DFC53C",
"+. c #ECCF27",
"@. c #ECD12B",
"#. c #E7CC35",
"$. c #ECD232",
"%. c #EDD336",
"&. c #EED540",
"*. c #EFD849",
"=. c #F0D84A",
"-. c #ECD553",
";. c #F1DA52",
":. c #F2DC5C",
">. c #F2DE63",
",. c #F3DF6A",
"<. c #F4E270",
"1. c #F5E47C",
"2. c #F5E582",
"3. c #F7E88C",
"4. c #F7E994",
"5. c #F7EB99",
"6. c #F8EC9C",
"7. c #F9EEA5",
"8. c #F9EEAC",
"9. c #FAEFB2",
"0. c #FAF0B3",
"q. c #FAF2BB",
"w. c #FBF2BE",
"e. c #FBF3C2",
"r. c #FBF3C3",
"t. c #FCF6CE",
"y. c #FCF6D0",
"u. c #FDF7D9",
"i. c #FDF8DD",
"p. c #FDF9E2",
"a. c #FDF9E5",
"s. c #FDFAEA",
"d. c #FEFBEE",
"f. c #FEFCEE",
"g. c #FEFCF2",
"h. c #FEFDF8",
"j. c #FEFDFB",
/* pixels */
"                                                                                        ",
"                                                                                        ",
"                                                                                        ",
"                              . . . . . . . . o . . . . .                               ",
"                              ; : , 1 5 1 1 < 1 5 5 < < ,                               ",
"                        . . + v A H T R Q Q ! ^ / / U P S + . .                         ",
"                  . . & y f x H P U R R W Q Q ^ / ^ / / Q S V x $ . .                   ",
"                O + # 1 N S G R T T R W Q ^ ! ^ ( ( ) ) ) / W Y 6 - %                   ",
"              . ; j B S J I U U R R W Q Q ^ / ( ( ( ] ] ] { } } ` E K < o               ",
"            . 3 i b S H P I U U R R W Q Q ^ ^ ( ] ] [ | ..$.%.&.#.#.' M r .             ",
"          . O s v C H P P I U U I L I U Q ^ ( ) ] ] } X.%.;.>.,.>.*.' ' Z # +           ",
"        . > s b A H J K P I I F 9 . . 8 L Q ( ] ] { X.*.,.6.8.q.8.4.>.O.' L r .         ",
"        . 5 c C D H K K P U J r % . . $ t R ) ) [ | %.>.4.r.y.i.t.q.4.-.o.E u .         ",
"        . 0 N G H J K K I U F . . . . . . L ] ] { ..*.2.9.a.g.j.g.i.9.<.&._ g .         ",
"    . O q x D G H J K K P U F . . . . . . L ) ] } ..;.4.r.g.j.j.h.s.r.2.=...Y C O .     ",
"    . O s b D G G H K P I U H < # . . # < U ) ] { ..;.3.w.d.j.j.h.a.q.1.=. .! J + .     ",
"    . + l C D G H H K K P U P F 9 . . 1 L ^ ( ] { ..*.1.0.p.f.j.f.u.8.,.%. ./ U + .     ",
"  . > e B A D G H H K K P U U P L F F P W ^ ( ] ] } @.;.1.9.r.t.w.8.1.=.@.{ ) ( V t .   ",
"  . 1 d A S D D H H K K P U U R R Q Q ^ ^ ^ ( ] ] [ ..%.:.3.4.7.5.2.:.$...[ ) ) U f .   ",
"  . w c A A D D H H K K L I U T T R Q Q ! ^ ^ ( ] ] } ..@.=.;.:.;.&.+. .{ [ ) ( R z .   ",
"  . i B A S S D G H H K P I I U T R W W Q ^ ^ ( ( ] [ { | X.+.+.+...} { ) ) ) ( / n .   ",
"  . a C C A S G D H H K L I U U T R W Q ! ^ ^ ^ ( ] ) ] [ { { } { { [ ) ) ) ( ( ( m .   ",
"  . s C A S G G H J K K P I U T R R W Q Q ^ ( ( ( ] ( ) ) ) ] ] ] ] ) ) ( ( ^ ^ / m .   ",
"  . * 5 1 5 1 5 5 8 8 8 8 9 9 t r r r t t u u u u g ^ ( ) ) ) ) ) ) ) ( ( ^ ^ ! ^ m .   ",
"  . . . o . . o . . o . o . . o o . . o o . . . o ; ^ ^ / ( ( ( ( ( ( ( ^ ^ ! Q ! n .   ",
"  . y v v N V A C A A S G G F H H J I L P I T I I R Q ^ / ^ ^ ^ ^ ^ ^ Q ! ! Q Q Q x .   ",
"  . a B B B A S S D G G H J P P I I U U T R R R Q Q Q ^ Q ^ ! Q ^ Q ^ Q Q Q Q W Q x .   ",
"  . y N N C C A D D D G H H J P P I U U U T R R Q W Q Q Q Q ^ Q Q Q Q Q Q W R R R x .   ",
"  . 0 j N N B C A S D D H H J J P P P I U U T T R R R R W W W Q Q W Q R R R R U K f .   ",
"  . 3 s N B B C C A D D G H H H K K P P I U U T T R R R R W R R R R R R R R T U D a .   ",
"  . = e b N B C C A S S G G G H J J K P P I I U U U U T T R T R R R R T T U U I C w .   ",
"    O * d c N B C C A S D G G H H J K K K P P I U U U U U T U T U U U U U I K S , #     ",
"    . . i l B B B C C A D D D D H H J H K K K P I I I I U I U U U I U I I I H N . .     ",
"    . o 4 d b b B B C C C D D D G G H H K K K K K P P P P P I P I I P P P P A j O .     ",
"        @ 0 j b B B B C A A A D D D G H H H K J K K K K K K K K K P K K P D f *         ",
"        . > s c b B B B C A A D D D D G G H H H J J J K K K K K K J K J G C 5 .         ",
"        . * 0 p j N B B B B C C A D D D G G G G H H H J J J H J H J J A B c , .         ",
"          # = q p j b b b B C C A A A D S D D G G G H G H H H H H G S N j < *           ",
"          . . 3 q s c b b B B C C C A A S S S D D D D G G G G G G S N h y .             ",
"              o & q p j b B B B B C C C A A S S S S D S D D D D B b d : .               ",
"              . @ = 3 7 d l c B B B B B C A A A A A S S S C C b i 8 3 & .               ",
"                  . . O 4 i d b N N N B B C C C C A A A A c h i O . .                   ",
"                        O O & q s j N B N B C C C B v j p % @ O                         ",
"                        . . . = 4 w i s f a a s f s y 7 3 . . .                         ",
"                              . . . . . . . . . . . . . .                               ",
"                                                                                        "
};
