/* XPM */
static char *a91c55b465c14249f9485b81cee13cb1xzFtaCtsSMfwZKdi[] = {
/* columns rows colors chars-per-pixel */
"43 46 144 2 ",
"   c None",
".  c #000000",
"X  c #090600",
"o  c #0C0900",
"O  c #140D00",
"+  c #161100",
"@  c #1C1500",
"#  c #1F1901",
"$  c #251500",
"%  c #241C00",
"&  c #2B1D00",
"*  c #351F00",
"=  c #2D2301",
"-  c #322400",
";  c #3C2400",
":  c #352B00",
">  c #3B2C00",
",  c #3D3200",
"<  c #452700",
"1  c #412C00",
"2  c #4B2900",
"3  c #423500",
"4  c #4B3300",
"5  c #443800",
"6  c #553300",
"7  c #5C3700",
"8  c #553B00",
"9  c #5B3C00",
"0  c #623F00",
"q  c #524300",
"w  c #5E4300",
"e  c #5C4C00",
"r  c #614600",
"t  c #694700",
"y  c #654B00",
"u  c #6B4C00",
"i  c #714E00",
"p  c #655200",
"a  c #6B5400",
"s  c #6D5900",
"d  c #6A550A",
"f  c #745300",
"g  c #795600",
"h  c #745B00",
"j  c #7E5B00",
"k  c #776100",
"l  c #7C6600",
"z  c #815D00",
"x  c #846300",
"c  c #896600",
"v  c #846B00",
"b  c #8D6A00",
"n  c #916E00",
"m  c #8D7200",
"M  c #957200",
"N  c #997600",
"B  c #937A00",
"V  c #9D7A00",
"C  c #A17E00",
"Z  c #9F8300",
"A  c #A58200",
"S  c #A98600",
"D  c #A68900",
"F  c #AC8A00",
"G  c #B18E00",
"H  c #B59200",
"J  c #B99600",
"K  c #BD9A00",
"L  c #BC9B0A",
"P  c #B19014",
"I  c #C19E00",
"U  c #C5A200",
"Y  c #C9A600",
"T  c #CDAA00",
"R  c #D1AE00",
"E  c #D5B200",
"W  c #D9B600",
"Q  c #DDBA00",
"!  c #CDAD10",
"~  c #C1A21A",
"^  c #E1BE01",
"/  c #D4B727",
"(  c #D7BA2F",
")  c #D7BA30",
"_  c #E3C105",
"`  c #E4C40C",
"'  c #E6C512",
"]  c #E7C817",
"[  c #E7C818",
"{  c #E8C91B",
"}  c #E9CC24",
"|  c #EBCE2B",
" . c #E4C936",
".. c #ECCF31",
"X. c #ECD135",
"o. c #EDD23C",
"O. c #E6CD44",
"+. c #EED440",
"@. c #F0D84F",
"#. c #F1D953",
"$. c #F2DB5A",
"%. c #F2DC63",
"&. c #F4DF6C",
"*. c #F4E172",
"=. c #F5E37B",
"-. c #F5E482",
";. c #F7E78E",
":. c #F7E993",
">. c #F8EB9E",
",. c #F8EB9D",
"<. c #F8EDA3",
"1. c #F9EDA5",
"2. c #F9EDA6",
"3. c #F8ECA0",
"4. c #F9EEAB",
"5. c #F9EFAD",
"6. c #FAF0B3",
"7. c #FAF1B5",
"8. c #FAF2BB",
"9. c #FBF3C0",
"0. c #FBF4C6",
"q. c #FBF4C8",
"w. c #FBF5CA",
"e. c #FCF5CA",
"r. c #FCF5CC",
"t. c #FCF5CA",
"y. c #FCF6D0",
"u. c #FCF6D1",
"i. c #FCF7D6",
"p. c #FCF7D7",
"a. c #FCF7D9",
"s. c #FEFCED",
"d. c #FEFCEF",
"f. c #FEFBEA",
"g. c #FEFCF4",
"h. c #FEFDF5",
"j. c #FEFDF7",
"k. c #FEFDF5",
"l. c #FEFDF8",
"z. c #FEFDF9",
"x. c #FEFEFA",
"c. c #FFFEFB",
"v. c #FFFEFD",
"b. c #FFFFFD",
/* pixels */
"                                                                                      ",
"                                                                                      ",
"                                                                                      ",
"                            . . . . . . . . . . . . . .                               ",
"                            = : , , 5 3 5 3 3 , , > : = #                             ",
"                      . . . h F K T E R R T T Y U G C b > . . .                       ",
"                . . . d v B K E E E E R R T Y Y U K J F m f r > . . .                 ",
"                = = = A U E Q Q Q Q Q E E R T Y Y I I L G A n r @ @ +                 ",
"            . o A L ! ' ] ' _ ^ ^ Q Q W E E R T Y U U K J J H A n g 8 .               ",
"          . 3 d ~ /  .+.o.X.} [ ` ^ ^ W E E R R T Y U I K J J F A n g 4 @ .           ",
"          O d P ) O.%.%.%.$.+.| ' _ ^ W W E R U H H G K J J H H F N b g - X           ",
"      . # A ~ ( %.-.2.7.6.2.=.$.| ] _ ^ Q E H l X X # B G J J G G F C c i 8 X         ",
"      . % L / O.-.2.w.a.p.w.>.=.o.} ` ^ Q W s : . . o 5 m K J H G F A N x y X         ",
"      X = !  .$.3.q.g.z.k.s.8.,.#.| ` ^ Q E % . . . . . p I J H G F S S n g X         ",
"    . s D ' O.%.6.p.z.v.v.z.y.4.$.X.] ^ Q W % . . . . . p K J H G F F A C n 0 & .     ",
"    . v U [ o.%.5.u.k.z.x.k.w.2.$.| ] ^ Q W e = . . X : v K J H G F S S C N i : .     ",
"    . m E ` X.$.,.0.f.h.g.f.8.,.#.| ` ^ Q W H k X X # Z Z K J H G F S A A N x > .     ",
". = v I Q _ { X.*.:.8.w.0.8.;.&.X.{ _ ^ Q W T K Z Z Z H J J J H G F A b 3 @ @ o . .   ",
". : G R _ _ ] | $.*.;.3.,.;.&.@.} ' _ ^ Q E E R R T Y U I J D Z v l h e % . . . . .   ",
". , K R Q Q _ ' | X.@.$.$.@.X.} ` _ ^ W W E R R Y Y U U I H B q . . . .               ",
". , T W W Q ^ _ ` { } | | } ] ` _ ^ Q W W E E R T H B , , , = =                       ",
". , E W W W Q Q _ _ ` ' ' ` _ _ ^ W Q W E Y J D D m a . . . .                         ",
". , R E E W W Q Q Q ^ ^ ^ ^ ^ ^ W W Q W U Z % X X . X                                 ",
". , T T E E W W Q Q Q Q Q Q W W W Z e e q 5 +                                         ",
". , T R R E E E E W W W W W W E W p X o X X                                           ",
". , Y Y Y R R R R E E E E E E R E U I K F v @ . . . .                                 ",
". , U U Y T T T R R R R R R R R R T T Y K D p q q 3 :                                 ",
". , U U U Y Y T T T R T R T T T T Y Y U U U I I U Z k X X X X .                       ",
". - F K U U U U Y Y Y T T T Y Y U U U U I I K K J G S B m m s 3 . . . .               ",
". - N H I U U U U U U Y U U U U U I I I K K H J H G G F F A M y - - = % +             ",
". & x F K I K I I U U I U I I I I I I J K J H H H G F F S A A V C N b h % . . . . . . ",
"    % v F J J K K K K I K I I I J J J J J H G G G F F S A A C V B N M c f y 8 % .     ",
"    . p C H H K K J I K J I J J K H H H H H G G F F S S C C C C M N n n n c u - .     ",
"    . w n G H H H H J H H H J H H H G G G G F F S C C C C C N n n n n b c z 6 $ .     ",
"      & 3 V F G G G H G H G G G G G G F F F S S S C C C C N N N N n b c j t $ O       ",
"      . + b C F G G G G G G G G F G F S F S C S C C C C N C n M b n b z i 8 .         ",
"      . O g c M S F F F F F F S S S S S A A C A C C C N M n M n b b z i 7 < X         ",
"        O : t x N C S S S S S S S A A A C A V V N N N N N n n b c z i 0 * $ .         ",
"          . > i z N C S C S C C A A A V C V V V N N M M n n b c z i 0 2 O X           ",
"            o O t z n C C C C C V V V V V V N N M M n n b b c z g 0 ; X               ",
"              X < 4 q z b M N V V V N N N N M M M n n b z z f 0 1 * $ .               ",
"                . . . 6 i j n N N N N M M M n M n b b c g t 6 & . . .                 ",
"                      O + @ 8 f z b N M b n n n b z i 0 ; O O o                       ",
"                      . . . - 4 9 y u p p u y y y 9 4 ; $ . .                         ",
"                            . . . . . . . . . . . . . .                               ",
"                                                                                      "
};
