/* XPM */
static char *result[] = {
/* columns rows colors chars-per-pixel */
"46 44 135 2 ",
"   c #000000",
".  c #090700",
"X  c #0B0900",
"o  c #130D00",
"O  c #1A0F00",
"+  c #161100",
"@  c #1B1400",
"#  c #1F1A00",
"$  c #251700",
"%  c #241B00",
"&  c #2C1B00",
"*  c #321C00",
"=  c #272103",
"-  c #2B2100",
";  c #312400",
":  c #392300",
">  c #352A00",
",  c #3C2C00",
"<  c #3E3300",
"1  c #422400",
"2  c #442D00",
"3  c #4F2D00",
"4  c #423500",
"5  c #4D3400",
"6  c #453900",
"7  c #4C3C00",
"8  c #543500",
"9  c #583700",
"0  c #543B00",
"q  c #5C3C00",
"w  c #4F4100",
"e  c #544401",
"r  c #5B4400",
"t  c #574800",
"y  c #5C4C01",
"u  c #624300",
"i  c #6A4700",
"p  c #644C00",
"a  c #6B4B00",
"s  c #714F00",
"d  c #6B5300",
"f  c #6A5909",
"g  c #755200",
"h  c #7A5600",
"j  c #705E00",
"k  c #7C5A00",
"l  c #766100",
"z  c #7C6400",
"x  c #7F6900",
"c  c #815E00",
"v  c #846200",
"b  c #896600",
"n  c #826C00",
"m  c #8D6A00",
"M  c #856D0F",
"N  c #916E00",
"B  c #8D7200",
"V  c #957200",
"C  c #997600",
"Z  c #9D7A00",
"A  c #93760E",
"S  c #A17E00",
"D  c #9D8100",
"F  c #A58200",
"G  c #A98600",
"H  c #AC8A00",
"J  c #B18E00",
"K  c #AD9100",
"L  c #B59200",
"P  c #B99600",
"I  c #BD9A00",
"U  c #BE9E0B",
"Y  c #BC9C1D",
"T  c #C19E00",
"R  c #C5A200",
"E  c #C9A600",
"W  c #CDAA00",
"Q  c #C6A50D",
"!  c #CFAE0A",
"~  c #D1AE00",
"^  c #D5B200",
"/  c #D9B600",
"(  c #DDBA00",
")  c #D6B508",
"_  c #CAAC1D",
"`  c #D2B211",
"'  c #D8B715",
"]  c #E0BE01",
"[  c #CDAF22",
"{  c #E3C005",
"}  c #E5C40C",
"|  c #E6C613",
" . c #E7C914",
".. c #E8C71A",
"X. c #E7C818",
"o. c #E8CA1C",
"O. c #DDC12F",
"+. c #DDC234",
"@. c #DEC43E",
"#. c #E9CC23",
"$. c #EBCE2B",
"%. c #ECD02F",
"&. c #E6CB38",
"*. c #ECD135",
"=. c #EDD239",
"-. c #EED442",
";. c #EFD74A",
":. c #F0D74B",
">. c #EBD454",
",. c #F1D953",
"<. c #F2DB5C",
"1. c #F2DD63",
"2. c #F3DE6A",
"3. c #F4E16F",
"4. c #F5E37B",
"5. c #F5E481",
"6. c #F7E78B",
"7. c #F7E893",
"8. c #F7EA98",
"9. c #F8EB9B",
"0. c #F9EDA4",
"q. c #F9EEAB",
"w. c #FAEFB1",
"e. c #FAF0B2",
"r. c #FBF2BB",
"t. c #FBF3C2",
"y. c #FCF6CE",
"u. c #FCF6D1",
"i. c #FDF7D8",
"p. c #FDF8DC",
"a. c #FDF9E3",
"s. c #FEFBED",
"d. c #FEFCF4",
"f. c #FEFEFB",
"g. c None",
/* pixels */
"g.g.g.g.g.g.g.g.g.g.g.g.g.g.g.g.g.g.g.g.g.g.g.g.g.g.g.g.g.g.g.g.g.g.g.g.g.g.g.g.g.g.g.g.g.g.",
"g.g.g.g.g.g.g.g.g.g.g.g.g.g.g.                            g.g.g.g.g.g.g.g.g.g.g.g.g.g.g.g.g.",
"g.g.g.g.g.g.g.g.g.g.g.g.    @ 0 p d z z z x x n n n l d t       g.g.g.g.g.g.g.g.g.g.g.g.g.g.",
"g.g.g.g.g.g.g.g.g.g.g.g.X o > N F J E E W ~ ^ ^ / ^ R P B @ + o g.g.g.g.g.g.g.g.g.g.g.g.g.g.",
"g.g.g.g.g.g.g.g.g.    - h m S P I I E E E W W ^ / / / ( / I H B       g.g.g.g.g.g.g.g.g.g.g.",
"g.g.g.g.g.g.g.g.% : 4 a C G J I T R E E W ^ ^ / / / ( ( ( ) ! U f y e o g.g.g.g.g.g.g.g.g.g.",
"g.g.g.g.g.g.g.  , c V F L P P T T R E E W ^ ^ / ( ( ] { }  .o.o.' Q K @ . g.g.g.g.g.g.g.g.g.",
"g.g.g.g.g.  X q h m G H L P P T R E E W ^ ^ / / ( ] } o.$.-.:.:.;.@.[ A e   g.g.g.g.g.g.g.g.",
"g.g.g.g.g.@ ; h b Z H J L P T T R E W W ~ / / ( ] }  .*.:.3.4.4.3.>.@.Y M , g.g.g.g.g.g.g.g.",
"g.g.g.g.  2 g b Z H J J L I T T R E W ~ ^ / / ( { | %.<.4.q.r.r.q.6.2.+.[ L %   g.g.g.g.g.g.",
"g.g.g.g.  0 v Z F G J J L P T T R E W ~ ~ / ( ] } #.-.5.q.i.a.s.p.r.7.>.+.Q =   g.g.g.g.g.g.",
"g.g.g.g.o u N F G H J J L P T T R W ~ ~ ^ / ( ] } #.,.7.r.s.d.f.d.y.0.<.&.! 7 # g.g.g.g.g.g.",
"g.g.  o u b S G G H J J L I T T E E ~ ~ ^ / ( ] | $.<.0.y.f.f.f.f.p.r.2.-.| U z   g.g.g.g.g.",
"g.g.  + g N S F G H J J L I T R R E ~ ~ ^ / ( ] | #.,.8.t.s.f.f.d.u.q.<.=.| E n   g.g.g.g.g.",
"g.g.. % v V S F G H H L P I T T E E W ~ ^ / ( ] } #.;.6.w.a.s.d.a.t.9.,.*.} ^ D + g.g.g.g.g.",
"g.  2 i C Z S S G G J J L P I T R E W ~ ^ / / ( { | %.1.4.q.r.t.e.7.3.=.o.{ ] E Z >   g.g.g.",
"g.  5 h C C S F G G J J L P P T R E W ~ ~ / / ( ] } o.=.<.4.6.6.5.1.;.#. .] ] ~ K >   g.g.g.",
"g.  r v C C S S G G J J L P T T R R W W ~ ~ ~ ( ( { } #.%.;.,.,.;.*.#. .{ ( ( ~ R <   g.g.g.",
"g.  a V C C S S F G G J J P P T T R E W T = l ( ( ( ( } } o.#.#.X. .} ] ] ( / / ^ 6   g.g.g.",
"g.  d V V C Z S S G J J J L L T T R R W T . y / ( ( ( ] { } } } } } ] ( ( / / ^ ^ 6   g.g.g.",
"g.  d N V C Z S F G G J J L L T T R R E I . y / ^ / ( ( ( ( ] ] ] ] ( ( / / ^ ^ ~ <   g.g.g.",
"g.  a N V C C S S F G G J J L P I I R E I X t / ^ ^ / / ( ( ( ( ( ( ( / / ^ ^ ~ W 6   g.g.g.",
"g.  d N V V C C S S G H J J L L I I T R L . y ^ ~ ^ / ^ ~ ~ T K K T W ^ ^ ~ ~ W W 6   g.g.g.",
"g.  a m N V C S S S G G J J J L P I T T L X t ~ ~ ~ ~ ~ W K <     w K W ~ W E E E <   g.g.g.",
"g.  p N N V C C Z S F G G H J J L P I I K . t E E W W ~ K w +     # 7 I W W E R E 4   g.g.g.",
"g.  u m N N V C C S S G G H J J L L I I K X t E R E W ~ D           . K E E R R T <   g.g.g.",
"g.  0 h m N V V C Z S S F G H J L L L I H X e E R R R W D           . K E R R I G >   g.g.g.",
"g.  2 a b N N V C C S S S G G J L H L P H X e R T T R R H 6 #     # 7 L R T I L C ;   g.g.g.",
"g.  * q b m N N V C Z S S F F H H H L L F . e T I I T T I D <     e Z I T T T G v -   g.g.g.",
"g.g.X $ s c m N N V C Z S S F G G H H H F . w I I P I I I L H D F G P I P P G z o g.g.g.g.g.",
"g.g.  o u k m N N V C C Z S S F G G H H F . w L L P P P P P I I T P P P L L Z d   g.g.g.g.g.",
"g.g.  o 3 s b m N N V C C Z S S F F H H D . w L L L L P L P L P P L L L L J m r   g.g.g.g.g.",
"g.g.g.g.o 8 h b m m N V V C Z Z S S F G C X 7 J J J J J J L J J L J J J G Z , @ g.g.g.g.g.g.",
"g.g.g.g.  2 i c b m N V V C C Z Z S F F C . 7 H H H H H J H J J J H H H Z m @   g.g.g.g.g.g.",
"g.g.g.g.  * 8 a k b m N N V V C Z Z Z S V . 6 H G G H G G H H H H H G C b h +   g.g.g.g.g.g.",
"g.g.g.g.g.O $ 9 i h b m m N V C C C Z Z V . 6 G F F F G G F G G G S V v u - o g.g.g.g.g.g.g.",
"g.g.g.g.g.  . 1 9 i v b m N N V V C C Z V . 5 S S F S F F F F F S V v s 2   g.g.g.g.g.g.g.g.",
"g.g.g.g.g.g.g.  & 8 a k b m m m N N V V b . 4 S Z Z S Z S S S S N c a o . g.g.g.g.g.g.g.g.g.",
"g.g.g.g.g.g.g.  O * : 5 s h c m N N V V b . 4 C C Z Z Z C V b c 5 4 : X g.g.g.g.g.g.g.g.g.g.",
"g.g.g.g.g.g.g.g.g.    O 3 u g b b m m N n . 4 C V C V C N k a 9       g.g.g.g.g.g.g.g.g.g.g.",
"g.g.g.g.g.g.g.g.g.g.g.g.X o $ q s h m N v . 4 V V N c s q o o o g.g.g.g.g.g.g.g.g.g.g.g.g.g.",
"g.g.g.g.g.g.g.g.g.g.g.g.    o * 2 5 r p r   - p p r 0 5 :       g.g.g.g.g.g.g.g.g.g.g.g.g.g.",
"g.g.g.g.g.g.g.g.g.g.g.g.g.g.g.                            g.g.g.g.g.g.g.g.g.g.g.g.g.g.g.g.g.",
"g.g.g.g.g.g.g.g.g.g.g.g.g.g.g.g.g.g.g.g.g.g.g.g.g.g.g.g.g.g.g.g.g.g.g.g.g.g.g.g.g.g.g.g.g.g."
};
