/* XPM */
static char *result[] = {
/* columns rows colors chars-per-pixel */
"46 43 120 2 ",
"   c #000000",
".  c #090600",
"X  c #0C0900",
"o  c #140D00",
"O  c #161100",
"+  c #1B1500",
"@  c #1F1901",
"#  c #241400",
"$  c #231C00",
"%  c #2B1D00",
"&  c #351F00",
"*  c #2D2301",
"=  c #322400",
"-  c #3C2400",
";  c #352B00",
":  c #3B2C00",
">  c #3D3200",
",  c #452700",
"<  c #412C00",
"1  c #4B2900",
"2  c #423500",
"3  c #4B3300",
"4  c #443800",
"5  c #553300",
"6  c #5C3700",
"7  c #553B00",
"8  c #5B3C00",
"9  c #623F00",
"0  c #524300",
"q  c #5E4300",
"w  c #5C4C00",
"e  c #614600",
"r  c #694700",
"t  c #654B00",
"y  c #6B4C00",
"u  c #714E00",
"i  c #655200",
"p  c #6B5400",
"a  c #6D5900",
"s  c #6A550A",
"d  c #745300",
"f  c #795600",
"g  c #745B00",
"h  c #7E5B00",
"j  c #776100",
"k  c #7C6600",
"l  c #815D00",
"z  c #846300",
"x  c #896600",
"c  c #846B00",
"v  c #8D6A00",
"b  c #916E00",
"n  c #8D7200",
"m  c #957200",
"M  c #997600",
"N  c #937A00",
"B  c #9D7A00",
"V  c #A17E00",
"C  c #9F8300",
"Z  c #A58200",
"A  c #A98600",
"S  c #A68900",
"D  c #AC8A00",
"F  c #B18E00",
"G  c #B59200",
"H  c #B99600",
"J  c #BD9A00",
"K  c #BC9B0A",
"L  c #B19014",
"P  c #C19E00",
"I  c #C5A200",
"U  c #C9A600",
"Y  c #CDAA00",
"T  c #D1AE00",
"R  c #D5B200",
"E  c #D9B600",
"W  c #DDBA00",
"Q  c #CDAD10",
"!  c #C1A21A",
"~  c #E1BE01",
"^  c #D4B727",
"/  c #D7BA2F",
"(  c #D7BA30",
")  c #E3C105",
"_  c #E4C40C",
"`  c #E6C512",
"'  c #E7C817",
"]  c #E7C818",
"[  c #E8C91B",
"{  c #E9CC24",
"}  c #EBCE2B",
"|  c #E4C936",
" . c #ECCF31",
".. c #ECD135",
"X. c #EDD23C",
"o. c #E6CD44",
"O. c #EED440",
"+. c #F0D84F",
"@. c #F1D953",
"#. c #F2DB5A",
"$. c #F2DC63",
"%. c #F4DF6C",
"&. c #F4E172",
"*. c #F5E37B",
"=. c #F5E482",
"-. c #F7E78E",
";. c #F7E993",
":. c #F8EB9E",
">. c #F9EDA3",
",. c #F9EFAC",
"<. c #FAF0B3",
"1. c #FAF2BB",
"2. c #FBF3C4",
"3. c #FCF5CA",
"4. c #FCF7D4",
"5. c #FCF7D9",
"6. c #FEFCEC",
"7. c #FEFDF5",
"8. c #FEFEFA",
"9. c None",
/* pixels */
"9.9.9.9.9.9.9.9.9.9.9.9.9.9.9.                            9.9.9.9.9.9.9.9.9.9.9.9.9.9.9.9.9.",
"9.9.9.9.9.9.9.9.9.9.9.9.9.9.9.% * ; : > > > > > > > : ; * 9.9.9.9.9.9.9.9.9.9.9.9.9.9.9.9.9.",
"9.9.9.9.9.9.9.9.9.9.9.9.    $ z B D I I U Y Y T R Y J D c       9.9.9.9.9.9.9.9.9.9.9.9.9.9.",
"9.9.9.9.9.9.9.9.9.    % q i z D G J I I Y Y T R E R R T I n c a .     9.9.9.9.9.9.9.9.9.9.9.",
"9.9.9.9.9.9.9.9.o o O 2 x V D J P I I U Y T R R E E W ~ E R I S * $ @ 9.9.9.9.9.9.9.9.9.9.9.",
"9.9.9.9.9.9.9.  - f v B F H H P P I U Y Y R R E W W ~ ~ ) ` ` ] Q K Z o   9.9.9.9.9.9.9.9.9.",
"9.9.9.9.9.9.X : r x V D H H H P I I U Y T R R E W ~ ~ ] {  .X.X.| ^ ! s 2   9.9.9.9.9.9.9.9.",
"9.9.9.9.9.. o u l m D F G H J P I I Y Y T R E W ~ ~ _ } X.@.$.$.#.o.( L s X 9.9.9.9.9.9.9.9.",
"9.9.9.9.  : y z M A F F H H P P I U Y T T E E W ~ ` { @.&.>.,.<.>.*.$./ ! C $   9.9.9.9.9.9.",
"9.9.9.9.  3 l m V D F F H H J P I U Y T R E W ~ _ [ X.&.;.3.4.4.3.,.=.o.^ K *   9.9.9.9.9.9.",
"9.9.9.9.  7 b Z A D F G H H P P U U Y T R E W ~ _ { +.-.1.6.7.7.7.3.>.#.| Q *   9.9.9.9.9.9.",
"9.9.  o 5 l V Z A D F F H H P P U U T T R E W ~ ` } #.>.3.7.8.8.7.5.<.$.O.` C s   9.9.9.9.9.",
"9.9.  o u v Z Z A A F F H J P P I U T T R E W ~ ` } @.:.3.7.7.8.7.5.<.$.X.' I c   9.9.9.9.9.",
"9.9.  + l m V Z A D F G H H P P U U T T R E W ~ _ { @.-.1.6.7.7.6.3.>.#...' T N   9.9.9.9.9.",
"9.  = 8 b M V Z A D F F G J P P I U Y T R R E ~ ) ' X.%.-.1.3.4.1.>.*.O.{ _ W J g ;   9.9.9.",
"9.  3 u M B V V Z A F F G H J P I U Y Y R E E ~ ~ _ { +.&.;.>.,.:.*.#.} ' ) W R D ;   9.9.9.",
"9.  8 l m M V V A A F F G H H P I I Y T T W W E W ) _ { ..@.#.#.@.X.} ' ) ~ W T P >   9.9.9.",
"9.  t x M V V V V A D F G H H P P U U Y U i C E W W ) ` [ } ....} { ' ) ~ W W R Y >   9.9.9.",
"9.  u M m V M V V D D F F H H P P I U Y P   w W W W W ) ) _ ` ` _ _ ) ~ ~ E E R E >   9.9.9.",
"9.  y m m m V V V A D D F G H H P P I U P X w W E E W W W ) W ) ~ ~ ~ W E E R R T 0   9.9.9.",
"9.  y m m M V V V V F F F F H P P P I J S . 0 I T E E E W W W W W W W E E E T T T >   9.9.9.",
"9.  t b m M m V V A A A F G G H J J I D c . 4 C Y R E E W W E T R R R R R R T Y T >   9.9.9.",
"9.  t m b m m V V V V F D F G G H J I i + 9.+ $ G T T T Y G w $ * a G Y T Y Y Y Y >   9.9.9.",
"9.  t v b m m V V V V A A F F G H H P 0   9.9.  S T T T P j *     ; k U Y Y U U U >   9.9.9.",
"9.  t b b b M M B V V Z A D D G G H P 0   9.9.. S T U Y C .         . G Y U I I I >   9.9.9.",
"9.  8 l v b b M M B V V Z D D F F F C 4   9.9.. n G U Y C .         . G U I I P F :   9.9.9.",
"9.  3 u x b b M M B V V V D D F F A j ;   9.9.  i C I U C + X     X @ G I I P G V ;   9.9.9.",
"9.  - e x v b m M M B V V A V D F N . 9.9.9.9.9.. > P P J N ;     4 N J P J J F v %   9.9.9.",
"9.9.# - f z b b M M B B V Z Z A D m   9.9.9.9.9.  > P P J S k i i v D H J J F v : $ 9.9.9.9.",
"9.9.  o r l v b b m M M B V V A A v . 9.9.9.9.9.  : H H J J P I P J J H H H Z a   9.9.9.9.9.",
"9.9.  o 5 d x v b b m M B B V V n a   9.9.9.9.9.  * N D H H H H H H H H G G m e   9.9.9.9.9.",
"9.9.9.X % e l x b b b m M B B V i > . 9.9.9.9.9.9.$ 0 N G G G G G G F F D Z q :   9.9.9.9.9.",
"9.9.9.9.  < u z v v b b m M B B *   9.9.9.9.9.9.9.9.  c G F F F F F F D Z m +   9.9.9.9.9.9.",
"9.9.9.9.  - 6 u l x b b b M M B =   9.9.9.9.9.9.9.9.  k D D D D D D D B v f +   9.9.9.9.9.9.",
"9.9.9.9.  # , 9 u l v v v m b b *   9.9.9.9.9.9.9.9.  g Z A D A D Z V v d 7 O   9.9.9.9.9.9.",
"9.9.9.9.9.    1 8 u z v v b x d $   9.9.9.9.9.9.9.9.  w v Z Z A Z M x f 3   9.9.9.9.9.9.9.9.",
"9.9.9.9.9.9.9.o & 8 u l v v d $ O 9.9.9.9.9.9.9.9.9.9.$ 2 V V V m z d & + 9.9.9.9.9.9.9.9.9.",
"9.9.9.9.9.9.9.  # , 6 y l x t   9.9.9.9.9.9.9.9.9.9.9.  + M M b d r 7 .   9.9.9.9.9.9.9.9.9.",
"9.9.9.9.9.9.9.9.      # 5 r 7   9.9.9.9.9.9.9.9.9.9.9.  + z f 9 . .   9.9.9.9.9.9.9.9.9.9.9.",
"9.9.9.9.9.9.9.9.9.9.9.o # = $   9.9.9.9.9.9.9.9.9.9.9.  X : = % 9.9.9.9.9.9.9.9.9.9.9.9.9.9.",
"9.9.9.9.9.9.9.9.9.9.9.9.        9.9.9.9.9.9.9.9.9.9.9.          9.9.9.9.9.9.9.9.9.9.9.9.9.9.",
"9.9.9.9.9.9.9.9.9.9.9.9.9.9.9.  9.9.9.9.9.9.9.9.9.9.9.    9.9.9.9.9.9.9.9.9.9.9.9.9.9.9.9.9.",
"9.9.9.9.9.9.9.9.9.9.9.9.9.9.9.  9.9.9.9.9.9.9.9.9.9.9.9.9.9.9.9.9.9.9.9.9.9.9.9.9.9.9.9.9.9."
};
